<?xml version="1.0" standalone="no"?>
<!DOCTYPE svg PUBLIC "-//W3C//DTD SVG 20010904//EN"
 "http://www.w3.org/TR/2001/REC-SVG-20010904/DTD/svg10.dtd">
<svg version="1.0" xmlns="http://www.w3.org/2000/svg"
 width="1024.000000pt" height="1024.000000pt" viewBox="0 0 1024.000000 1024.000000"
 preserveAspectRatio="xMidYMid meet">
<metadata>
Created by potrace 1.14, written by Peter Selinger 2001-2017
</metadata>
<g transform="translate(0.000000,1024.000000) scale(0.100000,-0.100000)"
fill="#000000" stroke="none">
<path d="M0 5120 l0 -5120 5120 0 5120 0 0 5120 0 5120 -5120 0 -5120 0 0
-5120z m2050 4175 c124 -26 331 -69 460 -95 183 -38 758 -159 933 -197 l27 -5
0 -133 0 -132 -52 8 c-29 4 -215 32 -413 63 -198 30 -568 85 -822 121 -651 92
-686 99 -841 171 -103 47 -192 113 -297 219 -79 79 -175 203 -175 224 0 4 215
-39 478 -95 262 -56 578 -123 702 -149z m-880 -334 c249 -41 577 -91 1065
-161 465 -68 675 -100 820 -125 77 -13 191 -31 253 -41 62 -9 114 -19 116 -23
3 -4 -10 -26 -27 -49 -38 -51 7 -52 -452 7 -176 22 -329 41 -339 41 -35 0 -12
-8 43 -15 30 -4 65 -11 78 -16 13 -5 23 -6 23 -3 0 3 7 -2 16 -10 8 -9 25 -16
37 -17 67 -3 91 -7 95 -17 2 -6 10 -8 17 -6 9 4 14 -1 14 -13 1 -39 5 -53 14
-53 5 0 7 11 4 25 -4 25 -4 25 14 9 11 -9 19 -27 19 -39 0 -21 -3 -22 -36 -15
-20 5 -43 6 -50 3 -8 -3 -22 -2 -31 2 -10 3 -52 8 -93 11 -41 2 -93 6 -115 8
-45 5 -186 16 -665 51 -508 38 -554 46 -700 120 -130 66 -276 189 -356 301
-49 68 -52 78 -26 70 9 -3 127 -23 262 -45z m2480 -157 c0 -84 -4 -145 -10
-149 -15 -10 -12 -35 5 -35 8 0 15 -6 15 -14 0 -21 -17 -29 -24 -11 -3 8 -11
12 -18 10 -17 -7 -18 7 -24 196 l-5 156 31 -5 30 -4 0 -144z m258 101 c110
-24 398 -84 842 -176 107 -22 245 -51 305 -64 61 -13 198 -42 306 -65 l197
-42 80 -102 c96 -121 386 -500 663 -867 l200 -266 127 34 c70 19 140 41 155
48 27 13 29 12 90 -45 56 -54 60 -59 37 -60 -25 0 -331 -60 -339 -67 -2 -1 17
-29 42 -62 53 -67 55 -63 -50 -77 -37 -4 -58 -3 -68 6 -9 7 -45 56 -82 109
-36 53 -114 157 -173 231 -59 74 -125 162 -148 195 -23 33 -105 141 -182 240
-77 99 -192 248 -254 330 -63 83 -125 160 -138 172 -17 16 -69 31 -218 62
-107 22 -303 64 -435 92 -227 48 -619 125 -947 186 l-148 28 0 93 c0 56 4 92
10 92 6 0 63 -11 128 -25z m-348 -243 c0 -4 -10 -13 -22 -21 -23 -14 -23 -14
-4 8 20 22 26 25 26 13z m14 -47 c3 -8 1 -15 -4 -15 -6 0 -10 7 -10 15 0 8 2
15 4 15 2 0 6 -7 10 -15z m-98 -20 c-8 -8 -17 -15 -19 -15 -3 0 -7 7 -11 15
-4 11 2 15 20 15 23 0 24 -2 10 -15z m244 0 c0 -25 1 -30 13 -43 6 -8 20 -11
33 -8 29 8 56 -30 29 -40 -23 -9 -18 -33 10 -40 30 -7 32 -20 5 -34 -11 -6
-20 -15 -20 -19 0 -5 9 -11 20 -14 26 -7 26 -27 -1 -27 -16 0 -19 -4 -14 -17
19 -48 19 -56 -3 -51 -26 7 -38 -8 -22 -27 15 -19 -21 -40 -38 -23 -9 9 -12 9
-12 0 0 -6 -7 -9 -16 -5 -14 5 -15 3 -5 -15 10 -20 9 -21 -19 -19 -17 1 -32 9
-35 18 -3 9 -24 24 -48 35 -34 15 -42 25 -44 47 -1 16 -9 39 -17 51 -14 22
-13 88 1 126 4 8 5 19 4 23 -3 15 68 37 121 38 29 0 47 3 41 6 -19 7 -16 53 2
53 8 0 15 -7 15 -15z m40 -25 c0 -5 -5 -10 -11 -10 -5 0 -7 5 -4 10 3 6 8 10
11 10 2 0 4 -4 4 -10z m-320 -30 c0 -5 -2 -10 -4 -10 -3 0 -8 5 -11 10 -3 6
-1 10 4 10 6 0 11 -4 11 -10z m1050 -17 c1 -16 2 -16 16 2 13 17 16 18 24 5 5
-8 10 -19 10 -25 0 -5 7 -2 14 8 14 17 32 24 21 8 -3 -5 -1 -12 5 -16 5 -3 10
3 10 14 0 12 7 21 15 21 10 0 15 -10 15 -26 0 -20 3 -24 13 -17 6 6 22 13 35
16 17 4 22 1 22 -13 0 -23 28 -34 47 -19 16 14 15 14 29 -26 6 -16 16 -29 23
-27 7 1 21 -8 31 -20 17 -22 17 -24 2 -42 -16 -18 -16 -19 1 -13 10 4 26 -1
37 -10 25 -22 25 -29 0 -36 -28 -7 -25 -26 8 -38 26 -10 26 -11 8 -25 -27 -19
-29 -45 -5 -51 22 -6 26 -23 5 -23 -20 0 -29 -43 -11 -53 22 -12 18 -29 -5
-22 -14 4 -22 1 -27 -11 -4 -10 -2 -19 5 -22 16 -5 15 -33 0 -31 -7 1 -21 1
-31 0 -16 -1 -16 -3 -1 -26 15 -22 15 -25 1 -25 -9 0 -19 5 -22 10 -3 6 -13
10 -22 10 -14 0 -14 -2 1 -19 26 -29 11 -45 -21 -24 -26 17 -26 17 -21 -5 6
-20 4 -21 -10 -10 -13 11 -15 10 -10 -9 8 -30 -8 -39 -22 -13 -16 31 -30 24
-24 -12 5 -33 5 -33 -12 -10 -24 32 -46 29 -39 -5 l5 -28 -14 30 c-9 17 -15
24 -16 16 0 -11 -3 -11 -15 -1 -13 10 -15 9 -15 -11 -1 -21 -2 -22 -11 -6 -6
9 -14 15 -19 12 -5 -3 -11 -1 -15 5 -10 16 -21 12 -33 -12 -10 -23 -11 -23
-11 5 -1 28 -19 35 -39 15 -9 -9 -12 -6 -12 17 0 27 -1 28 -20 10 -18 -16 -20
-16 -35 -1 -11 10 -14 24 -10 37 6 19 4 20 -26 14 l-33 -7 17 26 c16 24 15 30
-5 27 -5 0 -8 3 -8 9 0 6 -9 10 -20 10 -13 0 -20 7 -20 20 0 14 5 18 16 13 12
-4 15 -1 12 13 -2 11 -12 19 -22 19 -25 0 -33 25 -12 37 22 12 20 25 -4 33
-11 3 -20 11 -20 16 0 5 9 9 20 9 24 0 28 35 5 44 -23 8 -18 29 5 23 11 -3 20
-1 20 4 0 5 -9 14 -20 21 -27 17 -25 28 4 28 20 0 23 4 18 22 -4 17 -2 20 11
15 14 -5 15 -2 7 19 -9 22 -8 25 7 20 22 -7 50 8 34 18 -6 4 -11 14 -11 22 0
11 4 12 19 4 28 -14 31 -13 31 12 0 21 0 21 15 2 14 -19 20 -11 16 23 -3 20
20 26 38 9 20 -18 31 -12 31 16 0 23 20 24 20 1z m-3130 -72 c113 -12 405 -39
650 -61 245 -22 483 -45 530 -50 47 -6 88 -10 92 -10 7 0 68 -112 68 -125 0
-3 -10 -3 -22 -1 -47 10 -173 16 -163 9 20 -16 13 -30 -15 -29 -15 1 -26 4
-23 9 2 4 0 7 -4 7 -18 0 -38 -36 -35 -62 2 -21 10 -28 34 -33 19 -5 33 -3 38
4 4 7 13 11 21 9 10 -2 13 6 12 27 l-2 30 16 -22 c16 -23 61 -34 47 -11 -4 6
-3 8 4 4 6 -3 9 -15 7 -26 -2 -11 0 -20 6 -20 5 0 9 5 9 10 0 6 7 10 15 10 8
0 15 -2 15 -4 0 -2 3 -11 6 -20 6 -14 -38 -16 -447 -16 -486 0 -512 2 -659 54
-125 43 -284 155 -389 273 -54 60 -62 78 -33 69 9 -3 109 -14 222 -25z m1650
-6 c0 -8 -4 -15 -10 -15 -5 0 -10 7 -10 15 0 8 5 15 10 15 6 0 10 -7 10 -15z
m48 -3 c2 -7 -6 -12 -17 -12 -21 0 -27 11 -14 24 9 9 26 2 31 -12z m32 -8 c0
-8 -4 -12 -10 -9 -5 3 -10 10 -10 16 0 5 5 9 10 9 6 0 10 -7 10 -16z m50 4
c18 3 30 0 30 -7 0 -6 -16 -11 -35 -11 -27 0 -35 4 -34 18 0 9 3 12 5 6 2 -6
18 -8 34 -6z m223 -37 c-9 -12 -23 18 -16 35 6 17 8 17 13 -6 4 -14 5 -27 3
-29z m-153 27 c0 -4 -7 -8 -15 -8 -8 0 -15 4 -15 8 0 5 7 9 15 9 8 0 15 -4 15
-9z m77 -12 c2 -2 -12 -4 -31 -4 -20 0 -36 4 -36 8 0 8 58 5 67 -4z m1850 -48
c0 -7 1 -28 1 -45 2 -31 4 -33 41 -33 22 0 44 6 51 15 16 20 39 19 62 -2 23
-21 23 -45 -1 -67 -23 -21 -57 -14 -66 15 -5 14 -15 19 -45 19 -33 0 -40 -4
-44 -22 -9 -47 -23 -193 -19 -200 2 -5 24 -8 48 -8 34 0 47 5 55 20 14 25 52
26 74 1 24 -26 17 -52 -17 -71 -26 -14 -29 -14 -42 4 -8 10 -16 22 -17 25 -4
9 -144 -2 -154 -12 -4 -4 -2 -13 4 -19 7 -7 12 -21 12 -32 0 -18 -1 -18 -18
-3 -24 22 -38 22 -21 0 12 -16 11 -16 -8 0 -15 13 -23 15 -28 7 -4 -7 2 -18
14 -26 23 -17 28 -44 8 -44 -7 0 -18 5 -25 12 -20 20 -26 0 -8 -26 20 -31 20
-36 2 -36 -8 0 -22 10 -30 21 l-15 22 -7 -27 c-3 -15 -1 -32 5 -40 16 -20 -3
-30 -29 -16 -17 9 -20 8 -20 -10 0 -23 -18 -27 -26 -5 -4 8 -10 15 -15 15 -15
0 -10 -32 9 -53 16 -19 16 -20 -5 -15 -12 3 -24 1 -27 -6 -3 -7 -9 -5 -16 7
-17 26 -30 21 -30 -13 0 -36 -6 -37 -37 -8 l-23 21 -6 -32 c-8 -39 -23 -50
-31 -22 -7 28 -17 27 -31 -4 -19 -42 -33 -30 -30 26 l3 50 73 25 c118 39 202
104 255 195 39 67 69 199 70 311 l2 98 51 0 c35 0 52 -4 51 -12z m-2112 -103
c116 -8 211 -15 211 -15 1 0 14 -24 29 -52 15 -29 33 -60 41 -69 8 -8 14 -19
14 -24 0 -4 -75 -5 -167 -1 -93 4 -192 7 -221 8 l-53 1 -40 68 c-49 85 -55 99
-38 99 8 0 109 -7 224 -15z m605 -47 c0 -24 -3 -23 -28 11 l-21 29 25 -12 c13
-6 24 -19 24 -28z m-165 2 c16 -16 36 -30 44 -31 10 0 33 -35 59 -89 143 -299
445 -642 706 -802 l58 -37 -62 -31 c-76 -38 -75 -39 -196 62 -124 104 -207
188 -321 325 -159 192 -248 327 -328 498 -63 135 -63 135 -23 135 25 0 42 -8
63 -30z m2067 -47 c3 -36 5 -38 36 -37 31 2 32 1 32 -37 0 -38 -1 -39 -35 -39
-33 0 -35 -2 -35 -35 0 -28 -4 -35 -19 -35 -36 0 -51 12 -51 40 0 25 -4 29
-32 32 -30 3 -33 6 -36 41 -3 36 -3 37 32 37 34 0 36 2 36 35 0 33 2 35 34 35
33 0 35 -2 38 -37z m-1540 -10 c28 -25 23 -60 -13 -78 -37 -20 -59 -7 -59 34
0 30 9 46 30 54 22 8 22 8 42 -10z m-1465 -25 c-3 -7 -5 -2 -5 12 0 14 2 19 5
13 2 -7 2 -19 0 -25z m-39 -9 c-3 -8 -7 -3 -11 10 -4 17 -3 21 5 13 5 -5 8
-16 6 -23z m6268 16 c307 -46 545 -190 615 -375 l19 -50 -23 0 c-12 0 -38 -8
-57 -18 l-34 -19 -22 46 c-82 177 -317 270 -649 258 -258 -9 -477 -79 -748
-237 -73 -42 -179 -102 -237 -132 l-105 -55 -57 48 -58 48 33 24 c17 14 82 54
143 91 62 36 165 100 230 141 207 133 375 204 542 229 127 19 283 19 408 1z
m-4871 -55 c9 -16 13 -30 11 -30 -3 0 -12 14 -21 30 -9 17 -13 30 -11 30 3 0
12 -13 21 -30z m-978 -203 c41 -59 48 -77 23 -62 -13 8 -86 8 -355 1 -82 -3
-201 -5 -262 -5 -112 -1 -150 -13 -72 -24 23 -3 48 -14 59 -27 10 -12 22 -20
25 -18 4 2 12 -10 19 -26 l12 -29 117 1 c64 0 117 -3 117 -8 0 -4 -28 -8 -62
-9 -35 -1 -153 -8 -262 -17 -222 -17 -283 -12 -414 32 -41 13 -111 48 -155 76
-87 55 -227 167 -227 181 0 4 314 5 698 2 l697 -6 42 -62z m556 -34 c26 -36
47 -67 45 -68 -2 -2 -93 -5 -202 -6 l-199 -3 -39 55 c-72 98 -86 89 144 88
l203 0 48 -66z m617 -21 c29 -36 26 -86 -6 -111 -35 -27 -59 -26 -89 4 -31 30
-32 69 -4 110 18 25 27 30 51 27 15 -2 37 -16 48 -30z m488 -7 c1 -1 3 -153 3
-338 0 -312 -1 -338 -19 -378 l-20 -42 -7 33 c-4 18 -6 192 -4 386 4 348 4
354 24 348 11 -4 21 -7 23 -9z m970 -40 c-3 -43 -4 -45 -34 -45 -27 0 -32 4
-38 31 -11 56 -9 59 34 59 l41 0 -3 -45z m3405 28 c20 -11 2 -23 -35 -23 -27
0 -56 -8 -78 -22 -19 -12 -46 -21 -60 -20 -22 2 -23 1 -10 -10 9 -7 24 -34 34
-60 20 -54 61 -93 111 -107 31 -8 57 -5 123 14 35 11 26 -3 -18 -25 -68 -35
-117 -36 -179 -3 -65 33 -90 75 -98 161 l-5 59 58 21 c85 30 123 34 157 15z
m-6256 1 c-3 -3 -12 -4 -19 -1 -8 3 -5 6 6 6 11 1 17 -2 13 -5z m2997 -15 c20
-12 36 -22 36 -24 0 -1 -7 -15 -14 -31 -8 -15 -13 -31 -10 -36 8 -12 -1 -10
-41 9 -23 11 -34 22 -31 32 3 9 8 28 12 44 3 15 8 27 10 27 1 0 19 -9 38 -21z
m-311 -28 c10 -39 2 -51 -37 -54 -22 -2 -30 4 -41 30 -13 32 -13 33 13 48 38
21 54 15 65 -24z m-965 2 l62 -6 0 -59 c0 -43 -3 -58 -12 -55 -7 2 -12 14 -11
26 2 13 -1 20 -7 16 -6 -3 -10 -13 -10 -21 0 -8 -4 -14 -10 -14 -5 0 -10 6
-10 14 0 13 -20 26 -41 26 -5 0 -9 -7 -9 -16 0 -23 -24 -11 -30 16 -5 21 -7
22 -22 7 -26 -26 -38 -20 -38 17 0 57 9 69 44 62 17 -4 59 -10 94 -13z m4566
-19 c43 -42 -10 -109 -54 -69 -25 22 -26 61 -2 74 24 15 38 13 56 -5z m-6254
-14 c0 -5 -8 -10 -17 -10 -15 0 -16 2 -3 10 19 12 20 12 20 0z m2504 -44 c18
-35 19 -37 1 -56 -25 -28 -40 -25 -66 11 l-21 30 27 29 c16 16 31 28 34 25 3
-2 15 -19 25 -39z m617 11 l27 -32 -30 -33 -29 -33 -28 32 -29 33 27 33 c14
18 28 33 31 32 3 0 17 -15 31 -32z m-224 -6 c82 -25 121 -50 182 -116 62 -69
99 -143 113 -229 27 -163 -71 -345 -228 -422 -55 -27 -67 -29 -174 -29 -105 0
-120 2 -171 27 -86 43 -170 125 -204 200 -23 50 -30 81 -33 154 -5 108 10 165
66 247 106 156 278 220 449 168z m-2947 -7 c0 -2 -17 -4 -37 -3 -33 1 -35 2
-13 8 23 7 50 4 50 -5z m6785 -55 l35 -31 -23 -20 c-18 -16 -19 -19 -3 -14 47
15 167 -104 192 -192 21 -71 14 -196 -14 -270 -18 -47 -91 -156 -99 -148 -2 1
4 19 12 39 32 77 9 177 -53 229 -17 14 -53 33 -79 42 -62 20 -231 46 -306 46
l-59 0 76 75 c48 47 90 101 116 148 45 83 65 104 106 117 48 14 62 11 99 -21z
m-1516 -53 c49 -32 82 -46 106 -46 35 0 55 -20 55 -56 0 -23 -29 -54 -51 -54
-23 0 -49 37 -49 72 0 22 -12 34 -75 73 -41 26 -78 52 -82 58 -10 17 18 3 96
-47z m-2799 -55 c-13 -26 -14 -26 -61 1 -44 24 -45 28 -24 67 l14 29 41 -38
c36 -33 40 -41 30 -59z m-2000 52 c14 -21 33 -49 42 -63 l17 -26 -33 4 c-70 8
-667 -55 -646 -68 6 -4 31 -6 55 -5 25 0 45 -2 45 -5 0 -7 18 -10 59 -11 18
-1 21 -3 10 -10 -10 -6 -11 -9 -1 -9 7 0 17 -12 23 -27 8 -22 12 -24 19 -13 7
11 10 12 10 2 0 -10 14 -13 48 -11 26 1 52 5 57 8 6 3 17 7 25 8 36 6 65 12
65 13 0 7 56 7 60 1 5 -10 -69 -26 -215 -46 -58 -8 -154 -22 -215 -31 -131
-19 -257 -8 -361 31 -99 37 -323 174 -324 198 0 4 31 7 68 7 69 0 715 49 977
74 202 19 187 21 215 -21z m540 -28 c35 -36 58 -65 50 -65 -8 0 -94 -9 -190
-19 -96 -10 -175 -18 -176 -17 0 0 -24 33 -53 71 l-53 70 29 3 c25 2 238 17
303 21 19 1 42 -16 90 -64z m2275 35 c8 -16 15 -31 15 -33 0 -7 -79 -57 -90
-57 -5 0 -13 12 -16 26 -5 20 0 32 27 60 18 19 36 34 41 34 4 0 14 -13 23 -30z
m1464 -56 c167 -151 432 -408 452 -440 10 -17 20 -44 22 -60 4 -36 22 -80 36
-89 6 -3 11 -11 11 -17 0 -6 -51 38 -112 98 -62 60 -215 208 -340 329 -126
120 -228 225 -228 232 0 12 31 31 54 32 5 1 52 -38 105 -85z m948 80 c-3 -3
-12 -4 -19 -1 -8 3 -5 6 6 6 11 1 17 -2 13 -5z m0 -36 c16 -7 28 -20 28 -28 0
-16 -44 -27 -54 -13 -3 4 -14 14 -24 22 -16 13 -27 9 -103 -29 -58 -30 -87
-41 -95 -33 -13 13 4 27 51 42 20 6 51 22 70 36 38 27 75 28 127 3z m-1150
-95 c44 -38 60 -59 51 -63 -7 -4 -57 -19 -110 -35 l-97 -28 -56 43 c-30 23
-55 45 -55 49 0 5 173 83 198 90 2 1 33 -25 69 -56z m-2805 10 c42 -38 8 -103
-54 -103 -29 0 -58 31 -58 62 0 48 74 75 112 41z m4048 -13 c6 -11 9 -20 8
-20 -2 0 -11 9 -21 20 -9 11 -13 20 -7 20 5 0 14 -9 20 -20z m-3392 -17 c18
-4 22 -11 18 -27 -3 -11 -6 -27 -6 -34 0 -10 -12 -12 -47 -6 -27 3 -50 8 -51
10 -2 1 1 19 8 39 10 31 15 36 34 30 11 -4 31 -9 44 -12z m946 -7 c3 -13 8
-31 12 -39 4 -10 -7 -17 -42 -26 -25 -7 -48 -11 -49 -9 -1 2 -6 17 -9 34 -6
29 -4 32 31 46 51 21 50 21 57 -6z m1863 9 c0 -8 -4 -12 -9 -9 -5 3 -6 10 -3
15 9 13 12 11 12 -6z m680 -7 c-3 -8 -6 -5 -6 6 -1 11 2 17 5 13 3 -3 4 -12 1
-19z m-633 4 c3 -5 -1 -9 -9 -9 -8 0 -12 4 -9 9 3 4 7 8 9 8 2 0 6 -4 9 -8z
m586 2 c0 -8 -19 -13 -24 -6 -3 5 1 9 9 9 8 0 15 -2 15 -3z m30 -9 c0 -2 -10
-9 -22 -15 -22 -11 -22 -10 -4 4 21 17 26 19 26 11z m-50 -26 c0 -5 -4 -9 -8
-9 -5 0 -9 7 -9 15 0 8 4 12 9 9 4 -3 8 -9 8 -15z m-490 7 c0 -2 3 -11 6 -20
3 -9 1 -16 -5 -16 -7 0 -46 -30 -88 -67 -51 -44 -78 -62 -81 -53 -3 8 23 38
59 69 35 31 70 64 79 73 14 16 30 23 30 14z m357 -18 c-3 -8 -6 -5 -6 6 -1 11
2 17 5 13 3 -3 4 -12 1 -19z m73 -20 c0 -4 -4 -8 -9 -8 -6 0 -12 4 -15 8 -3 5
1 9 9 9 8 0 15 -4 15 -9z m-30 -20 c0 -6 -8 -4 -17 3 -15 12 -16 12 -11 -3 4
-10 1 -19 -9 -23 -19 -7 -40 10 -24 19 6 4 11 1 12 -6 0 -7 4 -3 9 9 9 22 40
23 40 1z m-5370 -4 c0 -8 -4 -12 -10 -9 -5 3 -10 10 -10 16 0 5 5 9 10 9 6 0
10 -7 10 -16z m5780 -3 c0 -5 -42 -59 -92 -121 -124 -149 -290 -378 -341 -469
l-40 -74 -30 34 c-16 19 -50 56 -74 82 -51 54 -51 58 -4 161 77 168 263 314
476 372 92 26 105 28 105 15z m-480 -36 c0 -5 -5 -3 -10 5 -5 8 -10 20 -10 25
0 6 5 3 10 -5 5 -8 10 -19 10 -25z m-50 21 c0 -2 -7 -7 -16 -10 -8 -3 -12 -2
-9 4 6 10 25 14 25 6z m-4376 -44 c22 -21 52 -45 65 -55 14 -9 23 -18 20 -20
-2 -3 -78 -20 -169 -40 l-165 -36 -63 67 -63 67 38 7 c53 10 265 46 282 47 8
1 32 -16 55 -37z m4296 33 c0 -7 -30 -13 -34 -7 -3 4 4 9 15 9 10 1 19 0 19
-2z m90 -15 c0 -5 -5 -10 -11 -10 -5 0 -7 5 -4 10 3 6 8 10 11 10 2 0 4 -4 4
-10z m17 -12 c-3 -8 -6 -5 -6 6 -1 11 2 17 5 13 3 -3 4 -12 1 -19z m-3492 -13
c46 -45 24 -115 -41 -131 -23 -6 -32 -1 -56 25 -15 17 -28 38 -28 46 0 72 76
109 125 60z m255 -10 l0 -35 -50 0 -50 0 0 35 0 35 50 0 50 0 0 -35z m960 -6
l0 -40 -42 3 c-42 3 -43 4 -46 41 l-3 37 45 0 46 0 0 -41z m1364 25 c15 -15
22 -65 10 -76 -10 -10 -44 4 -44 18 0 22 -17 16 -23 -7 -8 -29 -27 -14 -27 21
0 18 8 34 22 44 28 20 43 20 62 0z m882 -4 c8 0 14 -5 14 -10 0 -7 -6 -7 -20
0 -11 6 -20 16 -19 23 0 9 2 9 6 0 2 -7 11 -13 19 -13z m-2074 -37 c-3 -42 -3
-43 27 -43 25 0 31 -4 31 -21 0 -18 -5 -21 -30 -17 -37 6 -47 -6 -55 -57 -6
-38 -5 -41 29 -59 20 -11 36 -23 36 -28 0 -14 -53 -9 -70 7 -16 14 -20 11 -46
-41 -20 -40 -25 -59 -17 -61 7 -3 23 -13 35 -23 18 -15 20 -21 11 -31 -9 -9
-18 -8 -38 5 -34 22 -48 16 -80 -33 -30 -49 -31 -57 -5 -64 21 -5 27 -31 10
-42 -5 -3 -20 1 -32 9 -32 23 -43 20 -88 -20 -42 -38 -50 -54 -25 -54 16 0 19
-9 9 -34 -8 -22 -31 -20 -46 4 -16 25 -28 25 -84 0 -46 -21 -54 -39 -29 -60
23 -19 18 -30 -14 -30 -22 0 -30 6 -37 28 l-9 27 -77 -13 -78 -14 0 -245 0
-245 25 -30 c30 -36 32 -67 4 -102 -14 -18 -30 -26 -52 -26 -69 0 -105 87 -52
128 25 20 26 24 23 124 -3 100 -4 103 -26 102 -16 0 -21 4 -17 14 3 8 0 21 -6
28 -9 11 -7 14 9 14 12 0 26 -8 31 -17 7 -13 10 34 11 159 0 158 -2 178 -17
187 -15 8 -10 11 22 12 22 1 47 1 56 0 34 -4 148 29 215 61 87 41 226 175 273
263 35 64 71 187 71 241 0 29 3 33 33 37 67 9 72 6 69 -40z m1893 37 c3 -6 -1
-7 -9 -4 -18 7 -21 14 -7 14 6 0 13 -4 16 -10z m-4655 -70 c58 -66 60 -69 30
-59 -23 8 -52 9 -103 1 -40 -6 -94 -14 -122 -17 -76 -10 -647 -124 -671 -134
-17 -7 -44 2 -128 43 -59 30 -112 58 -117 63 -5 5 114 27 309 56 242 37 666
103 733 116 4 0 35 -30 69 -69z m4671 47 c-10 -9 -11 -8 -5 6 3 10 9 15 12 12
3 -3 0 -11 -7 -18z m34 13 c3 -5 1 -10 -4 -10 -6 0 -11 5 -11 10 0 6 2 10 4
10 3 0 8 -4 11 -10z m49 -6 c3 -8 2 -12 -4 -9 -6 3 -10 10 -10 16 0 14 7 11
14 -7z m76 -14 c0 -5 -2 -10 -4 -10 -3 0 -8 5 -11 10 -3 6 -1 10 4 10 6 0 11
-4 11 -10z m-1233 -30 c14 -25 24 -30 56 -30 22 0 54 7 73 16 24 12 41 13 61
7 15 -5 27 -13 26 -16 -2 -4 -3 -25 -3 -47 0 -48 -14 -51 -35 -10 -15 29 -18
30 -84 30 -64 0 -70 -2 -87 -27 -38 -60 -75 -68 -123 -27 -63 53 -23 133 66
134 25 0 36 -6 50 -30z m1208 19 c11 -17 -1 -21 -15 -4 -8 9 -8 15 -2 15 6 0
14 -5 17 -11z m-25 -14 c7 -9 11 -17 8 -20 -2 -2 -12 4 -21 15 -9 11 -13 20
-8 20 5 0 14 -7 21 -15z m-63 -10 c5 -4 2 -5 -4 -1 -8 5 -13 1 -14 -11 0 -14
-2 -15 -6 -3 -3 8 -11 18 -17 23 -6 4 -1 6 11 4 12 -2 26 -7 30 -12z m53 -30
c0 -5 -5 -3 -10 5 -5 8 -10 20 -10 25 0 6 5 3 10 -5 5 -8 10 -19 10 -25z m-95
6 c-3 -6 -14 -10 -23 -10 -15 1 -15 2 1 6 9 2 17 9 17 15 0 6 3 9 6 5 3 -3 3
-10 -1 -16z m69 -14 c4 -19 3 -26 -4 -22 -5 3 -10 18 -10 32 0 32 5 28 14 -10z
m-137 1 c-3 -8 -6 -5 -6 6 -1 11 2 17 5 13 3 -3 4 -12 1 -19z m93 -13 c0 -8
-2 -15 -4 -15 -2 0 -6 7 -10 15 -3 8 -1 15 4 15 6 0 10 -7 10 -15z m-3051 -27
c13 -36 7 -43 -47 -53 -62 -12 -72 49 -12 71 48 17 47 18 59 -18z m914 0 c20
-10 22 -28 5 -51 -11 -14 -19 -15 -55 -6 -44 12 -47 17 -37 57 6 20 11 22 38
16 17 -3 39 -10 49 -16z m1532 12 c3 -5 -1 -10 -9 -10 -9 0 -16 5 -16 10 0 6
4 10 9 10 6 0 13 -4 16 -10z m635 -16 c0 -8 -5 -12 -10 -9 -6 4 -8 11 -5 16 9
14 15 11 15 -7z m-26 -9 c3 -8 1 -15 -4 -15 -6 0 -10 4 -10 9 0 5 -8 12 -17
14 -14 4 -13 5 3 6 12 0 24 -6 28 -14z m-621 -38 c10 -4 22 3 31 18 11 16 22
22 36 18 27 -7 26 -14 -15 -53 -54 -52 -110 -225 -84 -256 15 -19 48 -18 55 1
8 21 38 19 58 -4 17 -18 17 -22 2 -42 -14 -21 -14 -24 1 -41 18 -20 44 -23 59
-8 6 6 21 3 42 -10 36 -22 39 -32 17 -50 -22 -18 -18 -43 10 -70 21 -20 29
-22 49 -12 17 7 27 7 35 -1 17 -17 13 -34 -15 -56 -24 -19 -25 -21 -9 -51 14
-28 21 -31 52 -28 29 2 38 -1 43 -17 10 -29 0 -55 -21 -55 -22 0 -24 -22 -8
-69 9 -26 16 -32 32 -27 39 10 65 -34 30 -49 -37 -15 -129 -22 -141 -10 -3 3
4 5 16 5 11 0 24 5 28 11 4 8 -3 9 -22 5 -28 -6 -30 -5 -41 45 -7 28 -10 56
-6 62 3 5 2 7 -4 4 -5 -3 -20 18 -32 47 -32 78 -113 182 -202 261 -48 42 -180
117 -196 110 -9 -3 -11 0 -7 7 5 8 2 9 -10 5 -10 -4 -15 -3 -11 3 5 9 -8 12
-31 9 -4 0 -10 4 -13 10 -4 6 -29 13 -56 17 -82 11 -295 14 -295 4 0 -5 -7 -7
-15 -4 -9 4 -15 0 -15 -7 0 -11 -2 -11 -10 1 -7 12 -10 11 -16 -5 -7 -18 -8
-18 -15 1 -7 18 -8 18 -8 -1 -1 -12 -4 -16 -9 -9 -11 17 -72 5 -73 -15 0 -10
-4 -7 -10 9 -7 18 -12 21 -18 11 -6 -9 -10 -6 -15 13 -4 18 -13 26 -28 26 -19
0 -19 2 7 21 22 18 26 27 21 54 -5 27 -3 33 19 43 34 16 45 15 45 -2 0 -25 27
-39 57 -29 22 8 28 16 28 39 0 22 6 31 28 38 32 12 47 -2 47 -41 0 -17 6 -23
23 -23 37 0 51 15 44 46 -5 28 -4 29 31 29 35 0 37 -2 42 -35 4 -31 8 -35 35
-35 27 0 30 4 33 33 2 23 8 32 22 32 36 0 50 -12 50 -41 0 -22 6 -32 26 -39
37 -14 44 -13 44 10 0 25 21 34 55 26 21 -5 24 -11 19 -34 -7 -37 28 -73 54
-54 9 7 29 17 43 22 16 7 35 30 52 66 33 67 33 77 2 98 -27 18 -32 35 -13 54
10 10 14 8 19 -6 4 -11 14 -22 22 -25z m1578 32 c-47 -5 -115 -18 -152 -29
-89 -27 -222 -94 -273 -138 l-41 -36 40 43 c22 24 61 55 87 70 27 15 45 31 41
34 -3 4 5 7 18 8 13 0 40 7 59 14 30 12 32 14 11 14 -13 1 -22 3 -20 6 12 11
121 23 214 23 l100 -1 -84 -8z m-4192 -56 c12 -27 12 -27 -6 -10 -11 9 -26 17
-34 17 -12 0 -11 2 1 10 22 14 26 13 39 -17z m243 -39 c11 -25 10 -29 -22 -55
l-34 -29 -23 22 c-13 12 -23 25 -23 28 0 8 71 58 83 59 4 1 13 -11 19 -25z
m768 -6 l39 -33 -26 -28 -27 -27 -28 27 c-15 15 -28 33 -28 40 0 13 21 53 28
53 2 0 21 -15 42 -32z m-1861 -8 c23 -17 55 -33 71 -37 17 -3 30 -9 30 -13 0
-7 -97 -37 -194 -61 l-50 -12 -48 53 c-55 61 -54 62 39 84 86 21 106 19 152
-14z m537 -20 c8 0 14 7 14 15 0 21 9 19 30 -7 l19 -23 10 25 c9 24 10 24 10
3 1 -27 20 -40 32 -22 6 10 11 11 17 3 4 -6 15 -13 25 -17 9 -3 17 -16 17 -27
0 -22 16 -28 22 -8 2 6 10 8 17 4 9 -6 8 -13 -6 -28 -18 -21 -18 -21 9 -14 31
7 46 -8 22 -22 -20 -11 -10 -32 16 -32 26 0 33 -15 15 -30 -22 -18 -18 -40 8
-40 20 -1 21 -2 5 -14 -22 -16 -23 -36 -3 -36 8 0 15 -4 15 -9 0 -14 -28 -33
-40 -26 -14 9 -12 -5 5 -35 21 -36 19 -40 -17 -29 -18 5 -34 9 -36 9 -1 0 5
-11 14 -25 20 -31 11 -44 -18 -26 -19 12 -20 11 -14 -16 6 -23 5 -26 -5 -15
-16 15 -33 16 -24 2 4 -6 4 -18 1 -26 -5 -13 -10 -12 -27 7 l-20 24 5 -27 c8
-34 -9 -37 -35 -5 -18 21 -18 21 -19 2 0 -11 -4 -26 -9 -34 -7 -11 -13 -6 -27
20 l-18 34 -10 -27 c-12 -35 -20 -35 -35 -2 l-12 27 -24 -23 -25 -23 0 25 c0
29 -24 56 -35 38 -11 -18 -27 -11 -20 11 6 18 5 19 -13 10 -24 -13 -35 -2 -21
19 17 29 10 40 -21 34 -35 -7 -38 4 -13 43 18 26 18 27 -7 20 -23 -5 -23 -5
-7 7 16 13 16 14 -5 28 l-22 15 22 12 c22 12 31 41 12 41 -18 0 -10 22 10 27
15 4 17 9 10 23 -14 26 -13 29 10 23 17 -5 20 0 20 32 0 34 2 36 28 33 24 -3
27 0 25 25 -2 29 7 33 38 17 16 -9 19 -7 19 12 0 21 0 21 15 2 8 -10 15 -16
16 -11 8 38 11 43 16 25 2 -10 11 -18 19 -18z m1754 15 c17 -21 9 -48 -20 -62
-20 -10 -27 -9 -42 4 -24 21 -23 39 4 57 28 20 42 20 58 1z m1410 -25 c26 -26
25 -36 -5 -66 -30 -30 -51 -28 -78 8 -19 25 -19 28 -3 52 20 32 58 34 86 6z
m-4012 -63 l73 -73 -48 2 c-27 1 -113 -11 -193 -26 -123 -25 -225 -50 -566
-141 -39 -10 -46 -8 -150 44 -61 31 -102 57 -94 60 8 2 112 26 230 52 209 45
675 152 675 154 0 1 33 -32 73 -72z m1501 16 l21 -18 -28 -33 c-26 -31 -30
-33 -55 -21 -33 15 -34 35 -5 66 26 28 39 29 67 6z m577 -24 l29 -31 -30 -24
c-33 -26 -42 -22 -69 30 -14 27 -13 31 2 42 25 20 35 17 68 -17z m793 -36 c10
-21 9 -29 -3 -41 -12 -13 -20 -13 -45 -2 -37 15 -39 32 -8 53 31 23 42 21 56
-10z m-1258 -9 c27 -14 30 -19 23 -47 -3 -18 -8 -35 -11 -40 -5 -8 -53 1 -66
13 -8 7 11 90 20 90 2 0 18 -7 34 -16z m330 -35 c14 -44 5 -59 -34 -59 -33 0
-51 85 -19 93 36 10 42 6 53 -34z m-150 -25 c-6 -34 -9 -37 -43 -39 -38 -2
-38 -2 -38 37 l0 38 43 0 44 0 -6 -36z m2329 16 c28 -28 7 -80 -31 -80 -14 0
-19 8 -20 28 0 27 0 27 -11 4 -15 -30 -33 -23 -33 14 0 20 7 32 25 41 34 17
47 16 70 -7z m-1517 -19 c-5 -21 12 -37 22 -21 9 15 25 12 25 -5 0 -22 18 -18
25 5 9 29 21 25 42 -17 19 -39 43 -55 43 -29 0 9 7 16 15 16 18 0 20 -17 3
-23 -9 -3 -1 -17 22 -41 71 -72 80 -86 80 -121 0 -62 -22 -42 -32 29 -2 10
-28 42 -58 70 -30 28 -56 54 -58 59 -2 4 -12 7 -23 7 -11 0 -19 7 -20 18 -1
16 -2 16 -6 0 -4 -15 -8 -16 -26 -6 -12 6 -36 11 -53 10 -26 -1 -33 3 -36 23
-4 21 2 28 39 44 0 1 -1 -7 -4 -18z m334 -23 c-3 -7 -5 -2 -5 12 0 14 2 19 5
13 2 -7 2 -19 0 -25z m-397 8 c0 -8 3 -22 7 -32 4 -12 2 -15 -8 -12 -8 3 -25
1 -38 -4 -19 -7 -28 -4 -44 13 -16 17 -17 23 -6 30 21 13 26 11 32 -12 7 -27
33 -19 30 10 -2 13 3 21 12 21 8 0 15 -6 15 -14z m-95 -46 c16 -18 16 -20 2
-20 -9 0 -26 -10 -38 -22 -21 -23 -21 -23 -10 -1 14 27 14 33 1 33 -5 0 -13
-18 -16 -40 -8 -49 -21 -60 -30 -25 -5 21 0 33 27 61 39 40 40 40 64 14z m835
7 c0 7 7 10 15 7 8 -4 15 -15 15 -25 0 -15 -7 -19 -40 -19 -33 0 -40 3 -40 19
0 21 31 33 42 16 5 -6 8 -6 8 2z m-60 -17 c0 -14 -10 -21 -37 -25 -71 -12
-147 -37 -206 -67 -60 -30 -74 -31 -64 -4 9 22 80 56 179 86 110 33 128 34
128 10z m130 0 c0 -11 -7 -20 -15 -20 -8 0 -15 9 -15 20 0 11 7 20 15 20 8 0
15 -9 15 -20z m218 -54 c151 -77 282 -225 337 -382 22 -63 28 -103 32 -196 5
-105 3 -125 -21 -209 -76 -263 -252 -428 -514 -479 -137 -27 -316 0 -452 70
-156 79 -281 238 -326 411 -21 79 -25 220 -6 226 9 3 12 -11 12 -52 0 -361
325 -660 687 -631 244 20 401 119 516 326 49 88 72 185 71 300 -1 195 -56 331
-188 464 -64 66 -99 91 -166 124 -47 23 -109 48 -137 54 -38 9 -53 17 -53 30
0 15 5 15 71 -3 39 -11 100 -35 137 -53z m-893 30 c88 -42 136 -106 150 -198
5 -35 2 -60 -15 -107 -25 -68 -63 -108 -138 -144 -49 -23 -72 -23 -173 4 -43
11 -108 70 -132 121 -26 54 -22 151 7 214 53 114 189 163 301 110z m140 14 c3
-5 1 -10 -4 -10 -6 0 -11 5 -11 10 0 6 2 10 4 10 3 0 8 -4 11 -10z m-2480
-104 l30 -25 -27 -1 c-31 0 -280 -89 -508 -181 l-144 -58 -103 51 c-57 29 -99
55 -95 59 4 4 57 23 117 42 61 20 227 73 369 119 l260 83 35 -31 c20 -18 50
-43 66 -58z m3957 47 c22 -20 23 -51 1 -75 -33 -37 -82 -12 -83 43 0 47 45 65
82 32z m-1951 -41 c-6 -2 -11 -15 -11 -28 0 -19 -5 -24 -25 -24 -30 0 -32 11
-4 28 11 7 18 19 16 27 -8 19 4 27 21 13 9 -8 10 -14 3 -16z m-1115 -9 c11
-51 13 -54 38 -47 19 4 26 1 31 -16 4 -12 4 -32 1 -46 -6 -24 21 -64 44 -64
18 0 10 29 -10 35 -27 9 -25 22 5 27 33 7 49 -14 41 -52 -6 -33 1 -37 30 -15
33 25 51 18 69 -27 16 -40 18 -41 26 -20 11 28 49 30 49 2 0 -10 9 -24 20 -30
16 -8 22 -7 32 10 16 25 38 26 38 1 0 -11 4 -22 9 -25 5 -3 11 -17 13 -31 5
-22 2 -25 -22 -25 -23 0 -27 4 -23 20 7 26 -26 40 -39 17 -5 -10 -18 -17 -29
-17 -16 0 -18 5 -13 25 5 20 2 25 -13 25 -10 0 -24 -5 -31 -12 -9 -9 -18 -9
-37 0 -21 10 -24 17 -19 37 5 19 2 25 -10 25 -9 0 -19 -7 -22 -15 -9 -23 -33
-18 -44 10 -5 14 -17 25 -28 25 -10 0 -32 11 -47 24 -24 21 -26 27 -16 40 13
15 7 36 -10 36 -5 0 -9 -7 -9 -16 0 -11 -6 -14 -22 -9 -29 9 -46 25 -30 26 7
1 17 3 22 4 6 1 13 3 17 4 4 0 2 6 -4 12 -8 8 -17 8 -31 0 -12 -6 -23 -7 -26
-2 -3 5 4 11 15 14 18 5 21 12 17 41 -5 42 9 49 18 9z m2071 17 c12 0 14 -18
9 -127 -3 -71 -6 -169 -6 -219 0 -76 -3 -93 -16 -98 -9 -4 -18 -5 -20 -4 -1 2
-5 106 -9 232 -6 210 -5 228 10 222 9 -3 23 -6 32 -6z m-2120 -30 c-6 -17 -15
-26 -20 -21 -5 5 -4 18 2 30 17 32 31 25 18 -9z m1951 -75 c-3 -3 -9 2 -12 12
-6 14 -5 15 5 6 7 -7 10 -15 7 -18z m64 -39 c16 5 18 -1 18 -38 0 -44 -1 -44
-49 -62 -95 -34 -185 -138 -197 -228 -8 -60 -30 -59 -26 1 1 23 -2 41 -8 41
-5 0 -10 -15 -10 -34 0 -41 -8 -48 -66 -53 -45 -3 -51 1 -35 26 8 12 12 12 25
2 12 -10 16 -11 16 -1 0 7 7 10 15 6 9 -3 15 0 15 9 0 8 -9 15 -20 15 -11 0
-20 5 -20 11 0 5 -10 3 -22 -5 -33 -23 -41 -19 -17 8 18 21 25 23 51 14 31
-11 44 -6 33 12 -4 7 -16 10 -26 7 -12 -3 -19 0 -19 8 0 20 19 28 35 15 22
-18 41 -7 21 12 -21 22 -20 31 5 46 14 9 19 20 16 34 -5 19 -5 19 14 2 15 -14
19 -14 19 -3 0 8 -5 20 -12 27 -17 17 18 28 37 12 12 -10 15 -9 15 8 0 12 5
24 11 28 7 4 9 23 5 49 -4 32 -2 45 9 49 9 3 18 -7 26 -32 6 -20 16 -41 22
-47 7 -7 8 -4 3 8 -3 10 -8 37 -11 60 l-6 42 26 -50 c25 -49 25 -49 21 -15 -2
19 -7 44 -11 55 -4 12 2 7 14 -10 11 -16 21 -38 21 -47 0 -10 5 -18 10 -18 6
0 11 24 11 53 l2 52 10 -38 c8 -29 14 -36 29 -31z m8 43 c0 -5 -4 -9 -10 -9
-5 0 -10 7 -10 16 0 8 5 12 10 9 6 -3 10 -10 10 -16z m220 -36 c0 -55 7 -52
20 8 l9 44 -3 -52 c-3 -59 8 -71 19 -20 4 17 14 41 23 52 13 17 14 18 8 2 -3
-10 -8 -37 -11 -60 l-5 -42 15 40 c20 52 38 69 25 24 -17 -59 -10 -78 11 -30
24 54 34 49 15 -7 -9 -23 -11 -42 -6 -42 4 0 14 16 20 35 6 19 15 35 20 35 11
0 -5 -57 -21 -76 -6 -7 -9 -18 -7 -24 2 -6 16 9 32 35 16 25 31 43 33 41 6 -6
-28 -79 -40 -87 -5 -4 -5 -9 0 -12 6 -4 16 5 23 18 7 13 17 22 22 19 4 -3 8
-1 8 4 0 5 7 9 15 9 22 0 18 -10 -15 -37 -45 -39 -36 -57 10 -20 52 41 62 33
16 -12 -20 -19 -36 -38 -36 -42 0 -8 62 33 72 48 4 6 10 7 14 3 4 -4 -12 -28
-37 -53 l-44 -46 48 26 c52 28 57 30 57 18 0 -4 -20 -18 -45 -31 -55 -29 -53
-36 5 -16 48 17 60 18 60 7 0 -5 -24 -14 -52 -22 -29 -7 -48 -15 -41 -17 6 -2
29 0 50 6 21 6 41 7 46 2 5 -5 -5 -12 -25 -16 -55 -11 -68 -16 -68 -25 0 -6
11 -5 26 0 14 6 37 10 52 9 22 -1 18 -4 -20 -17 -27 -8 -48 -19 -48 -24 0 -9
44 -1 73 14 12 6 17 5 17 -5 0 -16 -76 -41 -106 -35 -12 2 -26 25 -42 65 -34
89 -91 149 -182 191 -84 39 -89 43 -82 78 5 27 6 28 33 14 17 -10 19 -7 19 30
0 22 5 40 10 40 6 0 10 -21 10 -47z m1057 25 c6 -13 29 -44 52 -70 l42 -47
-77 -148 c-43 -81 -106 -202 -141 -268 -35 -66 -71 -135 -81 -153 -9 -19 -66
-93 -126 -165 -60 -73 -133 -167 -163 -210 -53 -75 -142 -151 -323 -274 -25
-17 -101 -77 -170 -133 -69 -56 -200 -162 -293 -236 -92 -74 -221 -182 -287
-240 -127 -111 -801 -764 -883 -856 -33 -37 -50 -49 -54 -39 -3 7 -21 43 -39
80 l-34 66 395 392 c379 377 601 575 930 833 38 30 107 88 154 128 46 40 118
96 160 124 143 96 241 179 313 266 40 48 75 89 78 92 3 3 13 17 23 32 9 15 44
56 77 91 44 47 81 105 141 218 45 85 123 228 174 319 52 91 97 177 100 193 9
33 18 34 32 5z m-2165 -48 c-3 -55 -6 -60 -27 -60 -18 0 -22 4 -18 20 3 11 10
20 17 20 6 0 12 11 12 25 2 19 -3 25 -20 25 -21 1 -21 1 -2 15 35 26 41 18 38
-45z m1072 35 c3 -9 0 -15 -9 -15 -8 0 -15 7 -15 15 0 8 4 15 9 15 5 0 11 -7
15 -15z m-420 -21 c3 -8 2 -12 -4 -9 -6 3 -10 10 -10 16 0 14 7 11 14 -7z
m-74 -4 c8 -5 11 -12 8 -16 -10 -9 -38 3 -38 16 0 12 10 13 30 0z m110 -39 c7
-24 6 -31 -3 -28 -7 2 -13 19 -15 38 -4 40 5 35 18 -10z m1294 4 c25 -25 -1
-75 -38 -75 -47 0 -62 48 -24 74 28 20 43 20 62 1z m-1418 -30 c15 -14 25 -27
22 -30 -2 -3 -17 9 -33 25 -35 36 -27 40 11 5z m-2240 -32 c65 -49 74 -60 51
-60 -7 0 -129 -57 -271 -127 l-257 -127 -90 47 c-49 26 -86 51 -82 55 9 9 564
257 577 258 5 1 37 -20 72 -46z m499 28 c3 -11 19 -22 35 -26 31 -7 42 -25 16
-25 -25 0 -48 -31 -42 -56 9 -32 -10 -30 -31 4 -25 39 -33 42 -84 36 -59 -8
-75 11 -18 21 24 4 54 19 73 36 37 34 43 35 51 10z m1805 -11 c0 -5 -7 -10
-15 -10 -8 0 -15 5 -15 10 0 6 7 10 15 10 8 0 15 -4 15 -10z m-610 -19 c0 -19
-26 -48 -35 -39 -6 6 18 58 28 58 4 0 7 -8 7 -19z m-330 -41 l0 -40 141 0
c108 0 140 -3 136 -12 -3 -10 -38 -12 -135 -11 l-132 2 0 -39 c0 -39 -1 -40
-34 -40 -33 0 -35 2 -38 38 l-3 37 -59 0 c-38 0 -61 4 -63 13 -3 8 10 12 49
12 61 0 78 11 78 52 0 24 4 28 30 28 28 0 30 -2 30 -40z m876 8 l29 -32 -35
22 c-19 11 -36 26 -38 31 -7 21 15 11 44 -21z m574 -24 c57 -36 90 -78 116
-148 27 -74 11 -84 -19 -11 -25 59 -81 121 -141 154 -60 33 -75 56 -24 39 18
-6 49 -21 68 -34z m-1106 17 c8 -12 -3 -41 -15 -41 -5 0 -9 11 -9 25 0 25 14
34 24 16z m500 -26 c15 -14 24 -25 21 -25 -11 0 -55 32 -55 41 0 13 5 11 34
-16z m-22 -22 c18 -16 24 -33 11 -33 -10 1 -46 50 -37 50 4 0 16 -7 26 -17z
m-422 -35 c0 -30 -25 -15 -28 17 -3 25 -2 27 12 16 9 -8 16 -22 16 -33z m830
22 c0 -5 -25 -34 -55 -63 -61 -59 -67 -82 -33 -127 12 -16 20 -31 17 -34 -2
-2 -106 -6 -231 -10 l-228 -7 0 24 c0 23 2 24 113 30 61 4 142 7 180 7 l67 0
0 29 c0 18 13 47 33 73 43 57 137 110 137 78z m180 -16 c40 -27 96 -101 106
-140 5 -21 12 -22 160 -26 165 -4 184 -10 162 -51 -8 -16 -16 -18 -46 -12 -21
4 -109 9 -197 11 -156 3 -160 4 -163 25 -2 13 3 26 12 31 14 8 7 20 -44 75
-87 95 -81 147 10 87z m-2028 -1 c22 -20 23 -61 1 -85 -22 -24 -69 -24 -83 1
-34 65 30 132 82 84z m1402 -8 c9 -14 13 -25 10 -25 -11 0 -44 32 -44 42 0 16
18 8 34 -17z m-319 -25 c-6 -18 -3 -20 19 -16 26 5 37 -16 16 -29 -5 -3 -10 0
-10 8 0 9 -9 13 -25 12 -18 -2 -25 2 -25 14 0 19 8 31 22 31 5 0 6 -9 3 -20z
m279 4 c11 -27 7 -37 -9 -24 -16 14 -20 40 -6 40 5 0 12 -7 15 -16z m-54 -13
c0 10 3 10 12 1 10 -10 10 -15 -2 -22 -25 -16 -40 -11 -40 11 0 18 2 19 15 9
12 -10 15 -10 15 1z m-143 -26 c-5 -37 -17 -42 -17 -7 0 18 5 32 10 32 6 0 9
-11 7 -25z m87 -17 c-9 -14 -24 2 -24 25 1 21 1 21 15 3 8 -10 12 -23 9 -28z
m-34 16 c0 -17 -22 -14 -28 4 -2 7 3 12 12 12 9 0 16 -7 16 -16z m-1649 -32
c13 -11 35 -22 49 -26 14 -3 36 -16 50 -27 24 -21 24 -21 5 -36 -11 -8 -49
-32 -85 -53 -36 -21 -123 -76 -193 -123 l-128 -86 -86 40 c-47 22 -83 42 -79
46 17 17 422 282 432 283 6 0 22 -8 35 -18z m1296 -34 c-6 -22 16 -58 36 -58
14 0 59 -51 52 -58 -3 -4 -10 0 -15 8 -8 12 -10 12 -15 -2 -10 -25 13 -58 39
-58 15 0 26 -7 29 -19 6 -23 0 -31 -35 -54 -35 -22 -35 -35 -3 -43 25 -6 25
-7 9 -25 -13 -14 -21 -16 -36 -8 -11 6 -26 8 -35 5 -11 -5 -9 2 6 28 12 18 21
45 21 60 0 40 -34 99 -68 119 -35 20 -97 22 -130 3 -64 -35 -82 -133 -37 -200
l24 -36 -24 16 c-14 9 -35 14 -48 12 -13 -2 -28 1 -35 8 -18 20 -14 27 13 22
15 -3 25 -1 25 6 0 21 -24 45 -50 48 -19 2 -26 10 -28 31 -3 25 0 27 30 27 57
0 80 42 31 55 -25 6 -26 8 -10 17 10 5 25 7 33 4 11 -4 15 0 14 17 -4 44 -2
46 68 49 58 3 68 6 77 26 7 15 18 22 39 22 24 0 28 -3 23 -22z m228 -8 c3 -5
2 -10 -4 -10 -5 0 -13 5 -16 10 -3 6 -2 10 4 10 5 0 13 -4 16 -10z m844 -4
c18 -22 9 -67 -16 -83 -20 -14 -24 -13 -48 13 -27 29 -32 53 -13 72 17 17 63
15 77 -2z m-809 -21 c0 -18 -5 -25 -20 -25 -11 0 -20 5 -20 10 0 6 7 10 15 10
8 0 14 3 14 8 -2 12 1 22 6 22 3 0 5 -11 5 -25z m5 -45 c4 -6 -8 -10 -30 -10
-22 0 -34 4 -30 10 3 6 17 10 30 10 13 0 27 -4 30 -10z m5 -30 c0 -5 -14 -10
-31 -10 -17 0 -28 4 -24 10 3 6 17 10 31 10 13 0 24 -4 24 -10z m1055 -22
c-19 -84 -114 -191 -197 -221 -30 -11 -20 -1 37 37 61 40 107 97 138 169 23
55 32 61 22 15z m-368 -1 c10 -13 28 -29 40 -36 14 -7 20 -17 16 -27 -5 -13
-8 -13 -28 0 -12 8 -27 11 -34 6 -19 -11 -6 -42 26 -63 l28 -18 -30 6 c-38 8
-57 26 -105 97 l-38 58 53 0 c44 0 57 -4 72 -23z m-238 -46 c29 -81 94 -150
178 -192 38 -19 70 -35 72 -37 3 -1 -5 -11 -16 -22 -15 -14 -23 -16 -26 -7 -3
7 -6 2 -6 -10 -1 -13 -5 -23 -9 -23 -5 0 -14 10 -20 23 -10 20 -11 20 -11 -12
-1 -38 -17 -32 -23 8 -5 41 -24 35 -20 -6 l3 -38 -18 35 c-16 31 -17 36 -3 47
8 6 12 14 8 18 -3 3 -28 -14 -54 -39 -27 -24 -50 -43 -52 -41 -6 6 30 58 55
82 13 11 20 24 14 27 -5 3 -11 3 -13 -1 -6 -13 -88 -88 -88 -80 0 3 14 22 31
42 41 46 31 55 -15 14 -20 -17 -40 -28 -44 -24 -4 4 10 21 31 38 35 31 46 47
30 47 -5 0 -24 -14 -43 -30 -19 -16 -39 -30 -43 -30 -13 0 10 35 37 55 14 11
26 24 26 29 0 4 -15 -3 -32 -16 -52 -38 -65 -44 -39 -15 27 30 19 37 -11 10
-10 -9 -18 -11 -18 -6 0 15 21 30 53 38 26 7 33 16 21 27 -3 3 -26 -6 -51 -20
-31 -17 -44 -21 -41 -11 2 8 21 22 41 32 49 25 47 40 -3 22 -22 -8 -42 -10
-45 -5 -8 12 28 30 62 31 25 0 26 1 8 9 -11 5 -35 6 -53 3 -29 -5 -33 -3 -30
13 3 14 11 18 33 16 17 -2 32 -8 33 -13 5 -12 22 -12 22 0 0 5 -12 14 -27 19
-18 7 -22 11 -10 11 9 1 17 6 17 11 0 33 53 -30 54 -64 2 -22 56 -116 67 -116
3 0 -7 26 -23 58 -28 57 -52 152 -38 152 4 0 17 -27 29 -59z m694 28 c17 1 68
-12 72 -19 2 -4 -8 -5 -23 -3 l-27 4 30 -15 c26 -14 26 -15 5 -10 -14 4 -32
13 -42 21 -10 9 -18 11 -23 4 -3 -6 14 -20 39 -33 26 -12 46 -26 46 -30 0 -8
-35 6 -82 32 -14 8 -18 6 -18 -5 0 -9 19 -25 43 -36 l42 -19 -48 6 c-48 5 -48
5 -36 -18 6 -13 26 -35 43 -50 17 -15 27 -27 21 -27 -5 0 -26 13 -45 30 -45
38 -53 18 -10 -26 17 -18 28 -35 22 -38 -5 -4 -19 7 -31 23 -12 17 -28 30 -36
30 -19 0 -19 -14 1 -31 8 -7 22 -25 30 -41 20 -39 -6 -28 -30 13 -10 17 -20
28 -24 25 -3 -3 -12 0 -20 7 -13 10 -15 9 -9 -5 3 -9 1 -19 -6 -21 -8 -3 -5
-17 11 -47 31 -55 22 -62 -12 -10 -14 22 -31 40 -36 40 -15 0 -12 -9 15 -57
33 -55 24 -56 -12 0 -22 34 -28 38 -31 23 -4 -18 -5 -18 -23 5 l-20 24 7 -27
c6 -29 -9 -40 -19 -14 -4 10 -18 14 -46 12 -63 -5 -51 16 34 58 93 46 160 112
200 195 20 43 31 57 35 46 3 -9 9 -16 13 -16z m82 13 c-3 -3 -11 0 -18 7 -9
10 -8 11 6 5 10 -3 15 -9 12 -12z m338 11 c-7 -2 -21 -2 -30 0 -10 3 -4 5 12
5 17 0 24 -2 18 -5z m-1563 -13 c0 -5 -13 -10 -30 -10 -16 0 -30 5 -30 10 0 6
14 10 30 10 17 0 30 -4 30 -10z m961 -23 c-10 -9 -11 -8 -5 6 3 10 9 15 12 12
3 -3 0 -11 -7 -18z m604 13 c4 -6 -7 -10 -27 -9 -27 0 -30 2 -13 9 27 12 33
12 40 0z m-2690 -35 l78 -36 -24 -25 c-20 -22 -236 -204 -303 -255 -20 -16
-26 -15 -105 15 l-84 32 30 25 c17 13 94 81 173 152 78 70 145 127 150 127 4
0 42 -16 85 -35z m1130 15 c-3 -5 -20 -10 -36 -10 -18 0 -28 4 -24 10 3 6 20
10 36 10 18 0 28 -4 24 -10z m1562 -20 c2 -22 -1 -25 -40 -34 -19 -4 -26 -3
-22 4 3 5 18 10 32 10 24 0 25 13 2 16 -30 4 -32 6 -14 14 32 14 41 11 42 -10z
m-1552 -10 c-3 -5 -17 -10 -31 -10 -14 0 -22 4 -19 10 3 6 17 10 31 10 14 0
22 -4 19 -10z m915 -10 c0 -16 -77 -62 -97 -58 -13 3 -2 13 37 35 30 17 56 31
58 32 1 0 2 -3 2 -9z m-905 -20 c4 -6 -8 -10 -29 -10 -20 0 -36 5 -36 10 0 6
13 10 29 10 17 0 33 -4 36 -10z m1535 -20 c0 -12 -34 -30 -57 -29 -12 0 -8 5
12 14 l30 13 -30 5 c-27 4 -27 4 8 6 20 0 37 -3 37 -9z m-1535 -10 c4 -6 -7
-10 -25 -10 -18 0 -29 4 -25 10 3 6 15 10 25 10 10 0 22 -4 25 -10z m1180 -20
c3 -5 2 -10 -4 -10 -5 0 -13 5 -16 10 -3 6 -2 10 4 10 5 0 13 -4 16 -10z
m-1175 -10 c11 -7 5 -10 -23 -10 -23 0 -36 4 -32 10 8 13 35 13 55 0z m1494
-21 c-16 -17 -38 -35 -49 -41 -11 -6 0 8 24 31 52 48 68 55 25 10z m1668 -28
c35 -39 41 -62 81 -341 l33 -235 -31 -8 c-27 -7 -36 -4 -63 20 -18 15 -32 34
-32 42 0 11 4 10 15 -5 9 -11 5 8 -10 49 -14 37 -25 70 -25 74 0 3 -2 4 -5 2
-2 -3 2 -26 10 -52 9 -29 10 -47 4 -47 -6 0 -7 -5 -3 -11 7 -12 -34 -3 -48 10
-29 29 -91 431 -66 431 5 0 8 5 8 10 0 37 -96 -53 -134 -127 -20 -38 -25 -42
-20 -18 22 104 81 196 146 229 48 24 106 15 140 -23z m-3942 -6 c36 -15 66
-28 68 -30 2 -2 -50 -58 -116 -124 l-120 -121 -66 17 c-36 10 -65 21 -64 25 9
24 214 268 222 264 6 -2 40 -16 76 -31z m800 25 c0 -5 -12 -10 -27 -10 -21 0
-24 -3 -13 -9 8 -6 18 -7 22 -5 4 3 16 0 25 -5 15 -9 12 -10 -17 -11 -40 0
-66 13 -56 28 3 6 0 13 -6 15 -7 3 6 6 30 6 23 1 42 -3 42 -9z m-432 -78 c34
-3 65 1 90 11 29 12 42 13 51 4 19 -19 13 -33 -27 -59 l-37 -25 -18 23 c-23
30 -72 32 -102 4 -20 -18 -23 -19 -35 -5 -7 8 -19 15 -26 15 -18 0 -18 14 2
52 l16 31 18 -23 c13 -17 30 -24 68 -28z m1164 -57 c3 -50 9 -101 13 -115 5
-18 1 -33 -13 -50 -20 -24 -20 -25 -41 -6 -23 21 -28 60 -10 72 7 4 9 22 6 46
-3 22 -3 64 0 94 5 43 9 54 22 52 13 -3 17 -22 23 -93z m-703 80 c-10 -10 -79
-14 -84 -5 -4 6 14 10 41 10 26 0 45 -2 43 -5z m992 -32 c7 -16 15 -31 17 -35
2 -5 0 -8 -6 -8 -7 0 -16 14 -40 63 -2 4 0 7 6 7 5 0 15 -12 23 -27z m-1030
-5 c-13 -4 -28 -5 -34 -1 -14 9 23 22 42 15 10 -4 8 -8 -8 -14z m33 -23 c-21
-16 -54 -20 -54 -6 0 5 10 12 23 14 46 9 51 7 31 -8z m13 -30 c-15 -14 -33
-25 -40 -25 -7 0 1 12 16 25 15 14 33 25 40 25 7 0 -1 -12 -16 -25z m433 6
c-11 -21 -30 -37 -30 -25 0 8 30 44 37 44 2 0 -1 -9 -7 -19z m-412 -40 c-22
-29 -48 -40 -48 -22 0 10 50 50 63 51 5 0 -2 -13 -15 -29z m870 -2 c-3 -8 -7
-3 -11 10 -4 17 -3 21 5 13 5 -5 8 -16 6 -23z m-433 1 c3 -5 1 -10 -4 -10 -6
0 -11 5 -11 10 0 6 2 10 4 10 3 0 8 -4 11 -10z m-418 -39 c-19 -23 -27 -27
-31 -16 -3 8 6 23 21 35 36 28 41 17 10 -19z m43 1 c0 -14 -49 -67 -55 -60 -4
4 3 16 14 27 12 12 18 21 15 21 -3 0 -2 5 1 10 8 12 25 13 25 2z m2203 -14
c82 -43 497 -393 497 -418 0 -4 -19 -20 -41 -35 l-42 -27 -41 23 c-110 61
-432 340 -466 405 -13 24 -13 28 9 45 27 22 53 24 84 7z m-2815 -95 c-1 -88 2
-103 25 -147 l27 -48 -48 -36 c-73 -54 -121 -103 -149 -151 -34 -57 -43 -167
-19 -237 9 -26 16 -49 16 -51 0 -7 -62 -33 -69 -29 -16 10 -35 101 -35 166 0
38 9 95 22 136 18 61 30 79 82 130 l60 59 0 147 0 147 38 4 c20 2 40 4 44 5 4
1 7 -42 6 -95z m628 69 c-17 -34 -44 -58 -53 -48 -6 5 54 76 64 76 2 0 -3 -13
-11 -28z m-212 -53 l18 -40 -28 -30 -29 -30 -11 27 c-6 15 -22 33 -35 40 -19
11 -20 13 -6 14 10 0 26 13 35 30 23 40 33 37 56 -11z m246 34 c0 -3 -7 -15
-17 -25 -23 -25 -8 -36 18 -12 l21 19 -19 -33 c-16 -28 -19 -30 -30 -16 -6 9
-16 13 -22 9 -19 -11 -12 14 12 39 22 24 37 32 37 19z m-475 -40 c13 -19 15
-31 8 -42 -11 -18 -53 -28 -53 -13 0 5 -9 12 -20 15 -22 6 -27 36 -8 55 20 20
55 14 73 -15z m513 -33 c-12 -37 -24 -45 -32 -23 -5 11 1 23 16 35 13 10 24
18 25 18 1 0 -3 -14 -9 -30z m27 -31 c-9 -16 -20 -29 -25 -29 -5 0 -2 15 8 34
9 19 20 32 24 29 5 -2 1 -17 -7 -34z m25 -24 c-7 -13 -17 -22 -22 -19 -4 3 0
16 9 29 23 29 31 23 13 -10z m25 -15 c-4 -12 -9 -19 -12 -17 -3 3 -2 15 2 27
4 12 9 19 12 17 3 -3 2 -15 -2 -27z m23 -16 c-7 -15 -14 -21 -16 -15 -5 16 5
41 17 41 7 0 6 -10 -1 -26z m18 -21 c-18 -33 -21 -26 -6 13 6 15 13 24 16 21
3 -3 -1 -18 -10 -34z m-1126 -46 l0 -74 -267 -180 c-455 -306 -826 -541 -1011
-639 -40 -21 -68 -40 -63 -42 15 -5 -27 -37 -159 -124 -448 -294 -742 -466
-1095 -644 -142 -71 -172 -73 -37 -2 34 18 62 35 62 39 0 3 16 11 35 19 19 7
31 18 28 23 -3 6 -1 7 5 3 6 -3 17 1 25 9 9 8 23 15 31 15 9 0 16 8 16 17 0 9
3 14 6 10 3 -3 15 2 25 12 11 10 37 27 59 37 22 10 40 22 40 26 0 4 7 4 17 1
11 -4 14 -3 9 5 -4 7 -2 12 4 12 6 0 20 9 32 20 12 10 25 17 30 14 4 -3 8 0 8
6 0 7 7 9 16 6 14 -5 15 -4 4 9 -11 13 -10 14 5 9 13 -5 16 -4 11 4 -4 7 -19
12 -34 12 -21 0 -24 2 -12 10 13 9 13 10 0 10 -13 0 -13 2 0 9 8 6 17 8 21 5
4 -2 9 2 12 9 3 8 30 26 61 40 31 15 56 29 56 32 0 2 -26 -7 -57 -21 -32 -15
-112 -50 -178 -79 -66 -29 -217 -95 -335 -147 -325 -144 -484 -206 -1055 -416
-104 -38 -227 -82 -272 -96 l-82 -27 -73 44 c-40 24 -106 61 -145 83 -40 21
-73 42 -73 45 0 4 15 9 33 13 50 10 416 120 702 211 574 183 1098 377 1525
565 52 23 127 55 165 71 97 41 625 313 825 424 346 193 834 501 1025 647 28
21 51 38 53 38 1 0 2 -33 2 -73z m457 43 c7 -37 23 -50 23 -18 0 36 14 50 46
46 26 -3 29 -6 26 -35 -3 -39 14 -43 30 -8 9 20 18 25 37 23 23 -3 26 -7 25
-40 -1 -43 7 -47 37 -17 29 29 44 19 42 -30 -1 -29 2 -41 12 -41 8 0 17 5 20
10 3 6 15 10 26 10 24 0 27 -45 3 -54 -27 -10 -6 -21 39 -21 54 0 63 -26 16
-51 -30 -15 -31 -18 -15 -29 9 -7 25 -11 35 -8 21 5 45 -21 37 -42 -3 -8 -9
-15 -13 -14 -28 5 -44 -3 -41 -18 2 -12 13 -18 33 -18 25 0 30 -4 30 -25 0
-20 -6 -26 -27 -28 -46 -5 -49 -52 -2 -52 24 0 28 -11 16 -42 -5 -13 -11 -15
-22 -8 -8 5 -23 10 -32 10 -27 0 -22 -35 7 -50 27 -15 34 -47 11 -56 -8 -3
-28 2 -45 11 -37 19 -40 7 -6 -33 29 -35 30 -40 9 -63 -16 -18 -18 -18 -45 2
-40 28 -55 16 -30 -26 19 -33 19 -33 0 -51 -20 -18 -21 -17 -45 14 -33 41 -48
32 -39 -24 5 -36 3 -44 -9 -44 -9 0 -16 6 -16 13 0 15 -56 41 -71 32 -6 -5 -8
-20 -4 -41 3 -19 4 -34 1 -34 -2 0 -11 -3 -20 -6 -11 -4 -14 -1 -11 14 4 21
-27 62 -48 62 -14 0 33 39 48 40 29 0 135 63 172 101 138 144 129 373 -20 490
-77 62 -124 82 -202 88 l-70 6 -3 43 c-3 39 -2 42 23 42 20 0 27 -6 32 -30z
m700 -7 c-3 -10 -5 -4 -5 12 0 17 2 24 5 18 2 -7 2 -21 0 -30z m32 -5 c-16
-32 -16 -32 -16 -3 0 15 5 25 14 25 11 0 11 -4 2 -22z m1745 -71 c207 -113
343 -197 374 -230 l24 -25 -34 -37 -34 -37 -94 54 c-52 30 -171 97 -263 148
-170 94 -227 136 -227 170 0 26 27 50 57 50 14 0 102 -42 197 -93z m-2011 63
c6 -21 -1 -29 -33 -35 -24 -5 -33 9 -25 35 9 27 51 27 58 0z m288 -13 c-8 -8
-11 -7 -11 4 0 9 3 19 7 23 4 4 9 2 11 -4 3 -7 -1 -17 -7 -23z m39 -2 c0 -14
-4 -25 -10 -25 -11 0 -14 33 -3 43 11 11 13 8 13 -18z m27 -32 c-3 -10 -5 -2
-5 17 0 19 2 27 5 18 2 -10 2 -26 0 -35z m45 -5 c-9 -9 -12 -7 -12 12 0 19 3
21 12 12 9 -9 9 -15 0 -24z m35 -10 c-3 -7 -5 -2 -5 12 0 14 2 19 5 13 2 -7 2
-19 0 -25z m60 -5 c-3 -10 -5 -4 -5 12 0 17 2 24 5 18 2 -7 2 -21 0 -30z m30
0 c-3 -10 -5 -4 -5 12 0 17 2 24 5 18 2 -7 2 -21 0 -30z m30 -5 c-3 -7 -5 -2
-5 12 0 14 2 19 5 13 2 -7 2 -19 0 -25z m-577 -45 c0 -26 -2 -44 -4 -42 -8 9
-13 98 -5 93 5 -3 9 -26 9 -51z m264 -46 c7 -11 6 -20 -3 -31 -12 -14 -16 -14
-34 -1 -27 19 -37 19 -37 -1 0 -8 -4 -12 -10 -9 -18 11 -11 53 12 69 19 13 25
14 42 3 11 -8 24 -21 30 -30z m2936 -372 c0 -215 -4 -365 -9 -365 -37 0 -41
11 -43 124 -1 100 -2 104 -7 41 -6 -64 -7 -67 -14 -35 -5 19 -11 55 -13 79 -2
24 -7 48 -10 52 -6 11 -19 230 -19 331 0 49 -3 64 -12 57 -8 -7 -12 -3 -15 13
-3 21 -7 23 -58 21 l-55 -2 45 15 c51 16 129 31 178 33 l32 1 0 -365z m-3563
344 c15 -5 40 -22 55 -36 31 -29 68 -118 68 -161 0 -32 -32 -106 -51 -117 -7
-5 -5 2 4 16 18 25 23 64 8 54 -5 -3 -12 -1 -16 5 -4 6 -10 8 -15 5 -13 -8
-32 22 -26 42 3 12 -4 24 -20 37 -25 18 -25 18 -13 -2 7 -12 9 -27 4 -38 -5
-11 -7 -23 -6 -27 1 -5 -3 -6 -8 -3 -5 3 -14 -1 -21 -9 -17 -20 -69 -19 -92 2
-10 9 -18 27 -18 40 0 34 -36 31 -45 -4 -3 -15 -18 -38 -32 -51 -23 -21 -27
-22 -35 -8 -13 23 -12 115 2 151 15 39 57 84 95 101 36 16 123 18 162 3z
m3108 1 c10 -16 -10 -36 -69 -70 -28 -17 -62 -38 -76 -47 -14 -9 4 11 40 44
36 34 70 66 75 71 13 14 22 15 30 2z m-3709 -142 l-11 -107 -160 -113 c-337
-236 -505 -350 -960 -653 -577 -383 -837 -552 -932 -606 -25 -14 -31 -15 -26
-4 3 8 11 15 19 15 17 0 18 16 2 26 -7 4 -8 3 -4 -4 4 -7 2 -12 -3 -12 -6 0
-11 6 -11 14 0 8 -18 28 -39 45 l-39 31 -224 -133 c-122 -74 -288 -171 -368
-217 -80 -46 -237 -138 -350 -205 -113 -67 -275 -161 -360 -208 l-155 -86 -85
34 c-47 19 -110 41 -140 48 l-55 15 90 42 c326 152 746 337 957 421 81 32 171
70 200 85 152 76 732 416 938 549 36 24 128 82 205 130 347 217 1118 725 1440
948 44 30 81 54 81 54 1 -1 -3 -50 -10 -109z m1174 47 c0 -16 7 -39 15 -49 19
-25 19 -52 0 -60 -8 -3 -15 -1 -15 4 0 6 -13 10 -30 10 -38 0 -39 21 -4 63 20
24 24 38 20 61 -4 22 -3 27 4 16 5 -8 10 -28 10 -45z m2546 26 c-11 -17 -75
-50 -81 -41 -3 4 10 17 28 29 33 21 63 28 53 12z m311 -63 c-2 -13 -4 -5 -4
17 -1 22 1 32 4 23 2 -10 2 -28 0 -40z m-73 -362 c47 -98 86 -181 86 -185 0
-4 -19 -4 -42 -2 -41 5 -42 5 -13 12 l30 7 -33 1 c-26 1 -37 9 -60 42 -15 22
-48 69 -74 103 -45 61 -138 244 -138 272 0 8 -5 14 -11 14 -6 0 -8 9 -4 20 6
20 4 19 -51 -5 -31 -14 -59 -23 -62 -21 -2 3 29 26 69 51 41 26 85 54 99 64
l25 18 46 -106 c25 -58 85 -186 133 -285z m-1263 330 c287 -100 369 -139 369
-172 0 -7 -11 -25 -24 -41 -18 -21 -27 -25 -37 -16 -22 17 -197 80 -272 97
-38 9 -92 26 -120 38 -50 20 -117 73 -117 90 0 12 31 58 39 58 4 0 77 -24 162
-54z m934 44 c3 -5 -1 -10 -9 -10 -9 0 -16 5 -16 10 0 6 4 10 9 10 6 0 13 -4
16 -10z m-30 -20 c3 -5 -1 -10 -10 -10 -9 0 -13 5 -10 10 3 6 8 10 10 10 2 0
7 -4 10 -10z m-165 -20 c0 -5 -35 -37 -77 -71 -43 -34 -76 -59 -73 -56 3 3 34
37 69 76 58 63 81 77 81 51z m609 -73 c-1 -59 -5 -54 -12 15 -2 26 -1 45 4 42
5 -3 9 -29 8 -57z m-609 8 c-7 -8 -16 -15 -21 -15 -5 0 -9 7 -9 15 0 9 9 15
21 15 18 0 19 -2 9 -15z m-2800 -15 c0 -5 -2 -10 -4 -10 -3 0 -8 5 -11 10 -3
6 -1 10 4 10 6 0 11 -4 11 -10z m30 -10 c0 -5 -5 -10 -11 -10 -5 0 -7 5 -4 10
3 6 8 10 11 10 2 0 4 -4 4 -10z m2730 1 c0 -8 -96 -78 -130 -95 -8 -4 5 11 30
33 25 22 49 41 53 41 5 0 15 7 23 15 17 17 24 19 24 6z m239 -184 c52 -105
114 -235 138 -287 42 -93 43 -95 21 -98 -12 -2 -24 0 -26 6 -1 5 -10 18 -18
28 -14 18 -15 18 -4 -3 10 -21 8 -23 -13 -23 -13 0 -32 7 -43 15 -18 14 -17
14 9 5 29 -10 36 0 12 20 -8 7 -12 16 -9 21 3 5 -4 13 -15 17 -18 6 -102 107
-101 121 1 3 16 -11 34 -33 20 -23 36 -34 40 -28 7 11 -44 101 -76 136 -10 11
-18 26 -18 33 0 8 -10 24 -23 37 -13 13 -34 36 -46 52 -23 29 -51 41 -51 21 0
-5 -3 -7 -7 -4 -3 4 6 21 22 37 36 38 24 39 -24 1 -20 -15 -51 -36 -68 -45
-55 -28 -29 5 57 73 43 34 84 69 91 77 6 8 14 14 18 14 3 0 48 -87 100 -193z
m408 121 c-3 -8 -6 -5 -6 6 -1 11 2 17 5 13 3 -3 4 -12 1 -19z m-1297 -8 c0
-5 -7 -7 -15 -4 -8 4 -15 8 -15 10 0 2 7 4 15 4 8 0 15 -4 15 -10z m358 -39
c-5 -14 -98 -114 -102 -110 -8 7 79 118 92 118 8 1 12 -3 10 -8z m-150 -31 c6
0 12 -5 12 -11 0 -7 -7 -8 -17 -4 -10 5 -26 8 -35 9 -9 0 -19 8 -21 17 -4 15
-2 15 22 3 14 -8 32 -14 39 -14z m-803 -3 c93 -53 125 -165 89 -317 -14 -59
-67 -216 -98 -290 l-12 -30 -23 24 -22 24 31 48 c72 113 119 301 91 364 -9 20
-11 21 -10 5 2 -32 1 -33 -37 -25 -33 8 -40 5 -78 -29 -81 -72 -206 -162 -261
-187 -37 -17 -55 -31 -51 -40 4 -10 -3 -9 -29 3 -19 9 -35 21 -35 26 0 13 84
166 146 267 103 166 196 215 299 157z m-1867 -7 c29 -28 28 -54 -4 -79 -54
-42 -114 -15 -114 51 0 48 77 66 118 28z m2852 -10 c0 -6 -7 -13 -16 -17 -8
-3 -20 -17 -26 -32 -9 -25 -10 -25 -24 -6 -13 17 -12 21 13 42 30 24 53 30 53
13z m-130 -4 c0 -3 -4 -8 -10 -11 -5 -3 -10 -1 -10 4 0 6 5 11 10 11 6 0 10
-2 10 -4z m268 -88 c66 -111 162 -292 162 -307 0 -7 -20 -11 -52 -11 -28 0
-48 3 -44 7 12 12 -67 83 -101 89 -31 6 -66 45 -75 84 -2 8 -9 20 -17 26 -8 6
-12 20 -8 33 5 20 3 19 -31 -7 -74 -57 -72 -40 3 40 43 45 82 92 88 105 6 13
14 23 18 23 4 0 30 -37 57 -82z m-3119 -526 c27 -9 61 -51 61 -75 0 -33 -46
-77 -80 -77 -15 0 -39 9 -54 21 -32 25 -35 73 -7 103 18 19 20 42 26 286 4
159 11 281 18 305 10 34 13 -6 17 -259 4 -249 7 -300 19 -304z m2904 550 c8
-11 -24 -45 -62 -66 -38 -21 -35 -10 14 41 31 34 40 38 48 25z m-2836 -304
c-2 -167 -5 -222 -14 -225 -10 -4 -13 46 -13 226 0 194 2 230 14 225 12 -5 14
-44 13 -226z m-293 155 c-10 -16 -77 -131 -149 -258 -161 -282 -344 -586 -460
-765 -191 -294 -322 -484 -373 -536 -184 -189 -302 -317 -398 -431 -60 -70
-149 -173 -199 -229 -123 -137 -245 -289 -316 -396 -33 -48 -62 -88 -64 -88
-3 0 48 80 112 178 64 97 159 245 211 327 51 83 125 197 162 255 37 58 112
175 165 260 240 381 689 1036 829 1210 154 191 298 342 449 468 48 39 55 40
31 5z m586 -9 c0 -8 -5 -12 -10 -9 -6 4 -8 11 -5 16 9 14 15 11 15 -7z m-892
-31 c-12 -21 -64 -96 -115 -168 -51 -71 -108 -152 -127 -180 -103 -146 -153
-208 -169 -211 -10 -1 -16 3 -14 9 2 7 9 12 15 12 7 0 12 4 11 9 0 5 3 12 8
15 4 3 23 26 42 51 19 25 39 51 44 58 5 6 7 12 4 12 -3 0 -43 -44 -88 -97
-100 -117 -213 -245 -325 -368 -45 -49 -137 -153 -204 -230 -122 -139 -608
-658 -895 -955 -361 -373 -536 -551 -489 -495 296 351 568 663 813 934 97 106
279 309 405 450 227 254 399 443 695 761 311 333 403 430 408 430 2 0 -6 -17
-19 -37z m4458 -78 c8 -21 -61 -236 -102 -314 -18 -36 -34 -62 -34 -57 0 5 13
55 30 112 55 190 54 199 -34 224 -39 11 -45 15 -30 21 10 4 15 9 9 10 -18 3
59 16 108 18 34 1 49 -3 53 -14z m-3650 -30 c20 -31 -2 -70 -41 -70 -23 0 -32
6 -39 27 -19 54 49 90 80 43z m3739 5 c24 -26 14 -72 -31 -141 -22 -34 -33
-45 -29 -29 3 14 11 62 18 108 6 45 14 82 18 82 3 0 14 -9 24 -20z m-715 -257
l-1 -168 -24 28 c-25 28 -27 44 -29 190 -1 32 0 32 -34 7 -15 -10 -39 -22 -54
-26 -25 -5 -28 -3 -28 19 0 14 6 28 13 31 6 4 -21 4 -61 1 -83 -6 -88 6 -10
23 29 7 85 23 123 37 114 39 105 50 105 -142z m-1562 50 c114 -58 209 -108
212 -110 2 -2 -20 -76 -49 -164 -31 -95 -57 -157 -62 -152 -5 5 3 48 20 103
16 52 35 114 41 138 6 24 14 50 17 58 3 8 -1 14 -10 14 -8 0 -71 28 -139 62
-67 34 -141 70 -163 80 -40 19 -40 19 -17 -1 l23 -20 -25 -71 c-26 -73 -77
-170 -99 -188 -6 -5 -39 -17 -72 -27 -33 -9 -66 -22 -74 -28 -19 -15 -23 -27
84 216 49 108 92 197 97 197 4 0 101 -48 216 -107z m1925 100 c5 -9 -47 -221
-57 -230 -6 -6 -10 72 -6 110 2 25 -28 57 -55 57 -11 0 -30 7 -41 16 -18 14
-16 15 30 10 68 -8 54 0 -40 23 l-79 20 122 0 c67 1 124 -2 126 -6z m-76 -195
c-3 -8 -6 -5 -6 6 -1 11 2 17 5 13 3 -3 4 -12 1 -19z m-2956 -79 c-12 -46 -21
-107 -21 -137 0 -29 25 -189 55 -355 l55 -302 103 -105 c56 -58 122 -126 145
-151 l43 -46 -32 -174 c-17 -96 -37 -183 -43 -195 -6 -11 -35 -42 -64 -67 -53
-47 -53 -47 -128 -47 l-74 0 70 66 70 66 0 145 c0 94 4 142 10 138 6 -3 10 -1
10 5 0 6 4 9 9 6 4 -3 16 0 25 7 16 11 8 22 -76 97 -51 47 -127 116 -167 155
l-75 70 49 -58 c26 -32 64 -71 84 -86 41 -33 56 -83 21 -74 -14 4 -22 -2 -30
-18 -16 -39 -40 -169 -33 -186 5 -12 3 -14 -7 -8 -9 5 -11 4 -6 -4 17 -27 -14
-77 -68 -109 -69 -42 -109 -48 -181 -27 l-58 17 73 39 c40 22 85 43 100 45 24
5 29 15 58 117 41 147 48 193 32 212 -20 24 -27 19 -60 -48 -35 -72 -58 -86
-143 -90 -41 -1 -57 -6 -57 -16 0 -17 -28 18 -69 87 -34 57 -38 70 -18 54 26
-21 110 -42 143 -36 26 5 34 11 34 28 0 11 18 75 40 140 l41 119 -37 109 c-20
60 -33 112 -30 115 3 4 6 1 6 -5 0 -7 5 -12 11 -12 5 0 7 5 4 11 -4 5 5 21 19
34 14 13 26 28 26 34 0 20 23 24 37 6 18 -25 17 -22 -18 157 l-31 157 84 104
c46 58 85 103 86 102 2 -2 -6 -41 -17 -86z m2161 -95 l-3 -101 -92 -42 c-79
-36 -217 -117 -217 -127 0 -2 19 3 42 12 87 30 42 5 -89 -51 -76 -33 -223
-102 -328 -155 -104 -52 -194 -97 -198 -99 -5 -2 -4 6 2 17 6 11 11 24 11 29
0 4 -13 -14 -28 -41 -35 -63 -55 -73 -40 -19 31 116 146 278 253 358 104 78
670 348 685 327 3 -4 4 -53 2 -108z m788 36 c-15 -57 -21 -46 -8 15 6 28 13
45 15 38 2 -6 -1 -30 -7 -53z m-5923 -39 c-1 -15 -4 -17 -19 -7 -19 11 -19 11
19 25 1 1 1 -7 0 -18z m1403 8 c0 -4 -9 -7 -19 -6 -11 0 -18 4 -16 7 6 9 35 8
35 -1z m-1350 -9 c0 -5 -4 -10 -10 -10 -5 0 -10 5 -10 10 0 6 5 10 10 10 6 0
10 -4 10 -10z m1313 -37 c-18 -28 -28 -31 -14 -4 6 10 8 20 6 23 -3 3 1 5 9 5
12 0 12 -4 -1 -24z m4247 -14 c0 -20 -4 -21 -44 -16 -25 4 -82 9 -128 13 -139
11 -123 23 30 24 138 0 142 -1 142 -21z m125 -14 c0 -34 -24 -45 -48 -21 -24
24 -10 58 22 54 22 -2 26 -8 26 -33z m-1814 -54 c109 -55 160 -93 74 -55 -108
47 -245 78 -245 55 0 -6 3 -11 8 -11 4 -1 27 -19 52 -41 25 -22 36 -37 25 -33
-11 4 -22 10 -25 14 -15 18 -65 50 -79 50 -9 0 1 -12 23 -26 21 -14 48 -36 60
-48 27 -27 70 -90 55 -80 -8 4 -9 3 -5 -4 8 -14 65 -15 119 -3 l38 9 -35 -39
c-20 -21 -47 -61 -61 -89 -21 -41 -28 -48 -43 -41 -69 35 -146 49 -168 30 -11
-9 -14 -8 -14 0 0 7 -4 10 -9 7 -4 -3 -17 1 -27 8 -13 10 -24 11 -36 5 -16 -9
-18 -5 -18 34 0 24 7 66 15 92 31 105 -5 47 -65 -103 -18 -45 -34 -81 -36 -79
-8 8 36 159 76 261 50 129 62 138 166 133 58 -3 84 -11 155 -46z m-3256 -51
c-3 -5 -63 -58 -133 -117 -70 -59 -165 -141 -212 -183 -47 -42 -115 -101 -151
-131 -59 -48 -264 -223 -969 -824 -118 -101 -226 -195 -239 -209 -14 -14 -29
-26 -34 -26 -5 0 -52 34 -105 76 -53 42 -102 79 -109 81 -16 6 -17 23 -2 23 6
0 122 78 258 173 429 302 814 562 1121 756 172 109 558 370 566 382 3 5 7 9
10 9 3 0 2 -4 -1 -10z m5354 -62 c-7 -12 -12 -27 -11 -31 1 -5 -2 -6 -7 -3 -6
4 -3 18 7 36 9 16 18 27 20 25 2 -2 -2 -14 -9 -27z m-1676 -3 c-38 -26 -143
-165 -178 -234 -18 -37 -41 -94 -50 -127 -10 -32 -23 -66 -31 -74 -12 -12 -14
-10 -14 15 0 17 5 50 11 75 13 57 93 227 122 259 l22 25 -25 -17 c-14 -10 -35
-22 -47 -29 -13 -6 -23 -18 -23 -27 0 -11 3 -11 15 5 14 18 15 17 4 -7 -8 -19
-17 -25 -30 -22 -10 3 -19 9 -19 14 0 18 -20 8 -100 -52 -45 -33 -85 -57 -88
-54 -14 14 146 151 219 190 80 42 169 74 209 74 l24 1 -21 -15z m892 -30 c96
-17 352 -99 275 -89 -61 9 -74 7 -193 -17 -231 -48 -446 -107 -519 -144 -96
-49 -192 -114 -250 -169 -41 -39 -46 -48 -39 -73 7 -26 4 -30 -58 -66 -108
-64 -215 -115 -339 -163 -121 -47 -167 -55 -215 -35 -16 6 -33 11 -39 11 -6 0
-6 6 2 15 7 8 10 15 7 15 -10 0 -84 -102 -120 -166 -42 -75 -73 -166 -87 -259
-16 -99 -24 -95 -16 9 8 109 50 242 108 341 78 134 251 283 473 412 210 122
616 316 770 369 82 28 122 29 240 9z m473 -65 c-1 -23 -1 -23 -5 -2 -3 13 -9
19 -15 16 -8 -5 -9 -1 -5 10 4 10 7 25 8 34 2 26 17 -29 17 -58z m240 26 c9
-20 8 -29 -7 -47 -20 -24 -51 -21 -51 6 0 18 29 65 40 65 4 0 12 -11 18 -24z
m-6458 -66 c-35 -24 -54 -31 -30 -11 14 11 30 21 35 21 6 0 3 -5 -5 -10z
m6148 -29 c-12 -22 -26 -37 -30 -35 -7 4 41 74 50 74 1 0 -8 -18 -20 -39z
m-1548 9 c0 -5 -5 -10 -11 -10 -5 0 -7 5 -4 10 3 6 8 10 11 10 2 0 4 -4 4 -10z
m1570 -30 c-6 -11 -13 -20 -16 -20 -2 0 0 9 6 20 6 11 13 20 16 20 2 0 0 -9
-6 -20z m-5615 2 c-22 -19 -89 -54 -75 -39 8 9 29 23 45 31 33 18 44 20 30 8z
m5515 -73 c0 -6 7 -8 18 -5 16 7 16 6 0 -10 -15 -15 -18 -15 -32 -2 -8 9 -12
18 -9 22 10 10 23 7 23 -5z m-130 -94 c-7 -8 -17 -15 -23 -15 -6 0 -2 7 9 15
25 19 30 19 14 0z m41 -5 c-13 -11 -28 -20 -35 -20 -6 0 3 9 19 19 39 25 46
25 16 1z m-101 -34 c0 -3 -13 -14 -30 -26 -16 -12 -30 -18 -30 -13 0 5 12 16
28 25 30 19 32 20 32 14z m5 -36 c-3 -5 -16 -15 -28 -21 -21 -10 -21 -9 2 10
25 23 36 27 26 11z m-125 -45 c-7 -8 -17 -15 -22 -15 -6 0 -5 7 2 15 7 8 17
15 22 15 6 0 5 -7 -2 -15z m30 -9 c0 -3 -15 -14 -32 -26 l-33 -22 28 26 c27
25 37 31 37 22z m-150 -61 c-7 -8 -18 -15 -24 -15 -6 0 -2 7 8 15 25 19 32 19
16 0z m35 -15 c-9 -15 -45 -32 -45 -22 0 5 10 14 23 20 29 14 29 14 22 2z
m-124 -40 c-22 -19 -41 -26 -41 -15 0 5 51 34 60 34 3 0 -6 -9 -19 -19z m493
-41 c-30 -32 -221 -197 -409 -354 -104 -85 -257 -206 -347 -271 -40 -29 -218
-127 -218 -120 0 2 35 27 78 57 148 102 258 184 431 324 96 77 225 180 285
229 61 49 131 106 156 127 54 47 64 50 24 8z m-478 6 c-21 -16 -32 -13 -21 4
3 6 14 11 23 11 15 -1 15 -2 -2 -15z m-120 -30 c-11 -8 -27 -15 -35 -15 -10 0
-7 6 9 14 33 19 50 19 26 1z m34 -14 c0 -9 -24 -21 -43 -21 -6 0 -2 7 9 15 22
17 34 19 34 6z m-130 -36 c0 -2 -10 -10 -22 -16 -21 -11 -22 -11 -9 4 13 16
31 23 31 12z m15 -35 c-16 -11 -34 -20 -40 -20 -16 1 38 40 55 40 8 0 2 -9
-15 -20z m-130 -40 c-10 -11 -21 -17 -24 -14 -3 3 3 12 13 20 28 20 32 17 11
-6z m30 -20 c-10 -11 -25 -20 -34 -20 -12 0 -9 6 9 20 33 26 48 26 25 0z m731
-30 c-24 -22 -47 -40 -52 -40 -10 0 77 79 88 80 4 0 -12 -18 -36 -40z m-866
-10 c-24 -19 -40 -25 -40 -15 0 5 51 34 60 34 3 0 -6 -8 -20 -19z m-1623 -12
c-3 -8 -6 -5 -6 6 -1 11 2 17 5 13 3 -3 4 -12 1 -19z m1658 -8 c-10 -11 -23
-20 -28 -20 -6 0 -2 9 8 20 10 11 23 20 28 20 6 0 2 -9 -8 -20z m-119 -45
c-26 -19 -42 -19 -26 0 7 8 20 15 29 15 13 -1 13 -3 -3 -15z m34 -10 c0 -2
-10 -10 -22 -16 -21 -11 -22 -11 -9 4 13 16 31 23 31 12z m-111 -39 c9 -11 6
-18 -15 -35 -15 -12 -30 -18 -33 -15 -3 4 -1 9 5 11 6 2 20 10 30 18 18 14 18
14 -2 15 -12 0 -27 -7 -34 -15 -7 -8 -18 -15 -24 -15 -11 1 43 50 55 50 4 0
12 -6 18 -14z m-380 -26 c51 -25 105 -89 120 -141 10 -34 10 -43 -1 -50 -10
-6 -15 2 -20 32 -22 125 -181 193 -298 129 -47 -27 -88 -78 -97 -122 -3 -16
-12 -28 -20 -28 -14 0 -13 11 8 66 13 37 72 96 114 115 55 25 145 25 194 -1z
m246 -60 c-10 -11 -21 -17 -24 -14 -3 3 3 12 13 20 28 20 32 17 11 -6z m-269
-28 c21 -16 48 -45 59 -66 17 -32 18 -38 5 -46 -22 -14 -30 -12 -30 6 0 29
-34 73 -68 90 -73 34 -171 -37 -158 -116 7 -47 36 -83 77 -96 22 -7 35 -19 37
-32 3 -18 0 -19 -31 -12 -46 10 -53 15 -88 62 -97 136 63 307 197 210z m314
12 c-8 -8 -23 -20 -34 -26 -19 -10 -18 -8 3 16 26 27 53 37 31 10z m778 -51
c-18 -15 -45 -36 -59 -47 -14 -12 -2 0 25 26 28 26 55 48 59 48 5 0 -6 -12
-25 -27z m-1134 -58 c9 -13 16 -29 16 -35 0 -14 -37 -13 -43 3 -3 8 -10 7 -26
-7 -21 -19 -21 -19 -21 3 0 59 45 81 74 36z m1016 -39 c0 -2 -8 -10 -17 -17
-16 -13 -17 -12 -4 4 13 16 21 21 21 13z m-1247 -69 c10 -23 26 -52 36 -64 32
-38 92 -73 127 -73 24 0 34 -5 34 -16 0 -32 -111 10 -164 62 -31 31 -66 94
-66 119 0 28 15 15 33 -28z m327 15 c0 -25 -36 -58 -42 -40 -8 20 10 58 27 58
8 0 15 -8 15 -18z m-62 -152 c-1 -160 -6 -146 -10 32 -2 70 0 122 4 115 4 -6
7 -73 6 -147z m-548 125 c0 -17 -9 -28 -32 -40 -18 -8 -91 -58 -163 -109 -161
-117 -228 -160 -223 -144 9 28 373 306 416 317 1 1 2 -10 2 -24z m1532 -30
c10 -23 8 -29 -15 -53 -23 -23 -29 -25 -37 -12 -5 8 -9 26 -9 40 1 20 2 21 6
5 10 -42 26 -41 20 3 -4 32 -2 42 9 42 8 0 20 -11 26 -25z m-267 -44 c-16 -15
-179 -111 -189 -111 -18 0 8 18 99 69 92 52 106 58 90 42z m404 -72 l65 -69
-16 -33 c-34 -71 -240 -298 -256 -282 -2 2 22 35 54 72 55 65 124 164 124 179
0 7 -38 -26 -167 -141 -67 -59 -67 -59 -32 -15 59 76 130 180 123 180 -4 0
-28 -20 -54 -44 -72 -68 -102 -79 -52 -19 46 54 50 63 27 63 -8 0 -15 -4 -15
-9 0 -27 -359 -230 -505 -286 -180 -70 -390 -123 -569 -145 -86 -11 -407 -7
-426 5 -6 4 -10 17 -10 31 0 23 2 24 23 12 32 -18 436 -18 537 1 124 22 348
87 469 136 240 96 364 177 516 338 50 52 92 95 95 95 3 0 34 -31 69 -69z
m-324 34 c4 -12 0 -22 -10 -28 -9 -5 -40 -27 -68 -49 -75 -55 -306 -167 -345
-166 -4 0 38 24 93 54 117 62 262 155 289 185 23 26 32 26 41 4z m570 -192
c105 -104 106 -105 94 -135 -20 -51 -111 -185 -188 -278 -99 -120 -126 -131
-56 -23 85 131 75 140 -35 30 -83 -82 -112 -99 -58 -32 76 93 123 192 52 109
-20 -24 -50 -50 -68 -58 l-31 -16 31 33 c42 46 77 99 66 99 -5 0 -26 -21 -46
-47 -44 -56 -48 -49 -6 12 17 24 30 46 30 49 0 17 -24 0 -71 -49 -29 -30 -54
-54 -56 -52 -2 3 17 37 42 78 25 40 45 76 45 79 0 3 -37 -30 -82 -73 -46 -43
-84 -73 -86 -67 -3 7 9 26 25 43 78 84 234 308 262 375 8 18 17 31 22 30 4 -2
56 -50 114 -107z m-1695 -34 c96 -31 247 -77 335 -103 88 -26 183 -57 210 -70
l50 -22 -35 -1 c-38 -1 -516 134 -695 196 -102 35 -110 40 -113 66 l-3 28 38
-19 c21 -11 117 -45 213 -75z m-646 22 c20 -17 55 -56 79 -88 23 -31 61 -74
85 -95 23 -21 40 -42 37 -46 -3 -4 2 -22 11 -39 33 -67 5 -48 -83 56 -130 152
-180 203 -200 203 -29 -1 -53 -19 -185 -140 l-126 -114 31 -41 c18 -22 44 -53
59 -70 33 -36 34 -45 8 -68 -11 -9 -20 -24 -20 -33 0 -10 -11 -1 -26 22 -15
21 -49 63 -75 92 -54 59 -57 67 -31 98 21 26 277 253 312 277 39 27 84 22 124
-14z m-22 -59 c18 -16 27 -30 21 -30 -7 0 -13 4 -13 10 0 5 -17 18 -37 29 -22
12 -31 20 -21 21 10 0 32 -13 50 -30z m2716 -194 c48 -41 107 -94 131 -119 53
-56 54 -52 -54 -233 -125 -209 -231 -346 -538 -699 -223 -255 -331 -371 -411
-438 -71 -60 -43 -14 53 88 90 95 194 218 442 520 58 71 247 317 307 399 25
35 28 48 8 40 -9 -3 -16 4 -20 22 -8 30 -53 94 -67 94 -5 0 -2 -11 6 -24 20
-30 17 -101 -4 -120 -9 -8 -27 -16 -41 -20 -19 -4 -17 -2 7 9 17 8 34 19 38
24 3 6 -7 4 -22 -4 -15 -8 -34 -15 -41 -15 -21 0 -62 51 -62 77 0 29 53 83 82
83 10 0 16 5 13 10 -14 22 -54 9 -86 -27 -18 -21 -36 -37 -40 -36 -4 2 -83
-88 -175 -198 -205 -248 -362 -419 -603 -659 -292 -292 -350 -317 -79 -35 511
532 883 992 1028 1273 17 34 34 62 37 62 2 0 44 -33 91 -74z m-2714 41 c9 -15
5 -23 -22 -48 -19 -17 -39 -28 -45 -26 -22 7 -19 48 4 73 26 28 46 28 63 1z
m2526 -38 c0 -35 -229 -346 -412 -559 -162 -189 -409 -452 -484 -515 -67 -56
-57 -42 77 105 293 322 468 526 563 655 90 121 176 252 198 301 17 39 21 43
39 34 10 -6 19 -15 19 -21z m-2350 -15 c0 -8 -19 -13 -24 -6 -3 5 1 9 9 9 8 0
15 -2 15 -3z m20 -55 c-6 -10 -16 -22 -24 -26 -33 -20 -156 -138 -156 -150 0
-8 -4 -12 -9 -8 -10 5 -26 -12 -26 -29 0 -5 -8 -10 -18 -12 -9 -1 -31 -14 -48
-28 -42 -36 -62 -33 -99 14 -26 33 -30 43 -20 55 11 13 17 10 44 -21 l31 -35
135 111 c74 62 143 118 153 125 11 7 16 18 13 23 -3 6 2 8 14 5 15 -4 18 -9
10 -24z m-355 -29 c3 -5 -1 -10 -10 -10 -9 0 -13 5 -10 10 3 6 8 10 10 10 2 0
7 -4 10 -10z m-267 -30 c-2 -10 -42 -52 -89 -92 -47 -40 -195 -173 -328 -295
-133 -123 -249 -223 -259 -223 -19 1 108 125 383 373 99 89 202 183 230 209
55 52 68 58 63 28z m2316 -5 c3 -10 1 -15 -7 -13 -6 2 -26 -6 -42 -18 -55 -38
-61 -36 -15 5 51 45 55 47 64 26z m-2094 1 c0 -3 -4 -8 -10 -11 -5 -3 -10 -1
-10 4 0 6 5 11 10 11 6 0 10 -2 10 -4z m3322 -233 c84 -78 191 -181 238 -230
55 -57 64 -69 25 -32 -33 30 -69 62 -79 70 -18 13 -19 12 -13 -4 4 -11 -10 -4
-38 20 -51 42 -58 53 -17 28 18 -11 13 -4 -13 20 -178 159 -285 262 -285 273
0 21 20 5 182 -145z m-1962 102 c0 -2 -13 -11 -30 -20 -38 -19 -40 -11 -2 9
31 17 32 18 32 11z m-1497 -70 c-4 -52 -51 -74 -79 -37 -20 25 -17 40 11 68
24 24 28 25 48 11 15 -10 21 -24 20 -42z m1707 31 c0 -3 -15 -14 -32 -26 l-33
-22 30 26 c31 27 35 29 35 22z m-70 -50 c0 -3 -15 -14 -32 -26 l-33 -22 30 26
c31 27 35 29 35 22z m68 -59 c-29 -24 -98 -66 -86 -52 10 11 102 74 108 74 3
0 -7 -10 -22 -22z m1812 -295 c13 -11 11 -12 -15 -6 -30 7 -66 31 -62 43 3 12
-108 109 -150 130 -23 11 -56 21 -74 21 -31 0 -31 1 -25 38 15 81 7 84 164
-69 81 -79 154 -149 162 -157z m-1671 275 c-33 -26 -124 -87 -131 -87 -11 0
93 85 113 92 14 5 27 1 18 -5z m-1739 -27 c0 -14 -94 -105 -293 -284 -197
-177 -212 -189 -231 -184 -8 2 11 25 48 57 33 30 133 120 221 202 134 123 241
216 253 218 1 1 2 -3 2 -9z m2985 -339 c42 -44 62 -71 50 -68 -11 4 -47 11
-80 16 -64 10 -115 26 -115 37 0 3 6 4 14 1 8 -3 17 -1 20 6 2 7 5 4 5 -5 1
-22 17 -23 25 -2 9 24 7 36 -6 28 -8 -5 -9 0 -4 17 4 13 8 30 8 37 2 18 5 15
83 -67z m-786 -305 c17 -31 10 -70 -13 -74 -10 -2 -16 0 -12 6 10 17 -28 24
-40 8 -22 -31 -34 26 -14 65 15 28 63 25 79 -5z"/>
<path d="M3562 8447 c-12 -13 -22 -33 -22 -44 0 -33 38 -73 69 -73 43 0 102
46 100 79 0 12 -3 10 -9 -4 -7 -15 -9 -16 -9 -4 -1 9 -10 28 -22 43 -27 34
-77 36 -107 3z"/>
<path d="M4451 8427 c-23 -13 -42 -28 -42 -33 1 -5 20 -28 42 -51 66 -70 99
-52 99 51 0 54 -1 56 -28 56 -15 0 -47 -10 -71 -23z"/>
<path d="M4570 8392 c0 -72 23 -107 56 -84 19 13 64 79 64 94 0 17 -32 34 -84
43 l-36 7 0 -60z"/>
<path d="M4368 8363 c-18 -19 -48 -84 -48 -103 0 -6 32 -10 80 -10 57 0 80 4
80 13 0 6 -22 36 -48 66 -46 51 -48 52 -64 34z"/>
<path d="M4675 8335 c-53 -64 -46 -79 40 -86 39 -4 73 -4 77 0 17 16 -47 131
-73 131 -4 0 -24 -20 -44 -45z"/>
<path d="M4542 8244 c-12 -8 -22 -21 -22 -29 0 -8 10 -21 22 -29 28 -20 58 -4
58 29 0 33 -30 49 -58 29z"/>
<path d="M4723 8222 c-90 -4 -96 -36 -16 -97 26 -20 39 -36 33 -40 -11 -7 -29
5 -79 52 -23 22 -23 22 -60 3 l-37 -18 7 -67 c3 -36 9 -68 11 -70 3 -3 19 -2
37 1 23 5 30 11 26 22 -4 12 -3 13 10 2 12 -10 20 -9 40 4 14 9 25 21 25 27 0
5 13 22 30 37 22 20 32 42 40 82 6 29 7 56 3 59 -5 3 -36 5 -70 3z m-66 -147
c14 -27 14 -29 0 -15 -9 8 -18 29 -21 45 -4 17 -3 23 0 15 4 -8 13 -28 21 -45z"/>
<path d="M4320 8179 c0 -22 8 -54 17 -69 l16 -28 59 50 c32 28 58 59 58 69 0
17 -9 19 -75 19 l-75 0 0 -41z"/>
<path d="M4426 8108 c-59 -53 -61 -64 -14 -89 15 -8 20 -5 28 13 10 22 10 22
7 -5 -5 -33 0 -36 58 -44 l45 -5 0 70 c0 69 -1 70 -33 90 l-34 20 -57 -50z"/>
<path d="M4370 7970 c0 -5 5 -10 11 -10 5 0 7 5 4 10 -3 6 -8 10 -11 10 -2 0
-4 -4 -4 -10z"/>
<path d="M2215 8230 c62 -8 252 -13 244 -6 -2 2 -71 5 -154 8 -88 3 -125 2
-90 -2z"/>
<path d="M3997 7803 c-25 -24 21 -85 51 -67 9 6 19 23 23 37 4 16 3 25 -2 21
-5 -3 -9 0 -9 5 0 12 -52 15 -63 4z m38 -13 c3 -5 1 -10 -4 -10 -6 0 -11 5
-11 10 0 6 2 10 4 10 3 0 8 -4 11 -10z"/>
<path d="M5372 7590 c-33 -17 -75 -47 -92 -67 l-32 -36 50 -29 c28 -16 61 -40
73 -52 l23 -24 26 29 c20 21 33 26 50 22 19 -5 22 -3 17 11 -4 10 -7 53 -7 97
0 76 -1 79 -23 79 -13 0 -51 -14 -85 -30z"/>
<path d="M5528 7530 c-3 -79 -1 -91 15 -96 9 -3 30 -17 46 -30 29 -24 30 -24
40 -6 5 10 37 33 70 51 34 18 61 34 61 36 0 14 -85 80 -134 105 -92 47 -94 46
-98 -60z"/>
<path d="M5208 7413 c-23 -58 -7 -233 22 -233 5 0 41 20 80 45 65 43 85 65 59
65 -7 0 -9 9 -6 23 8 28 2 37 -53 74 -84 56 -89 58 -102 26z"/>
<path d="M5706 7393 c-63 -42 -68 -47 -62 -74 5 -24 2 -29 -14 -29 -15 0 -20
7 -20 26 0 16 -13 39 -35 61 -32 32 -39 35 -78 30 -30 -4 -50 -15 -69 -37 -31
-34 -35 -67 -13 -110 19 -37 43 -50 94 -50 34 0 44 6 70 37 32 38 39 34 21
-11 -11 -29 -57 -56 -95 -56 -30 0 -75 21 -94 44 -12 14 -15 13 -32 -8 -10
-13 -44 -38 -75 -56 l-57 -32 38 -38 c38 -38 107 -75 165 -86 l30 -6 0 81 c0
80 0 81 25 81 25 0 25 -1 25 -84 l0 -84 44 13 c65 20 117 49 154 87 l33 35
-39 17 c-39 18 -112 78 -112 93 0 4 4 15 10 23 7 12 21 6 77 -33 38 -26 73
-47 79 -47 31 0 45 164 20 225 -8 19 -16 35 -18 34 -2 0 -34 -21 -72 -46z"/>
<path d="M9331 7526 c-7 -8 -15 -31 -18 -51 -6 -36 -5 -36 23 -29 74 18 114
63 74 84 -27 14 -66 12 -79 -4z"/>
<path d="M2448 7423 c12 -2 30 -2 40 0 9 3 -1 5 -23 4 -22 0 -30 -2 -17 -4z"/>
<path d="M4737 7283 c-13 -12 -7 -50 9 -63 22 -19 49 9 40 44 -6 25 -33 35
-49 19z m30 -35 c-3 -8 -6 -5 -6 6 -1 11 2 17 5 13 3 -3 4 -12 1 -19z"/>
<path d="M6946 7225 c-8 -23 4 -65 19 -65 7 0 23 9 36 19 20 16 22 23 13 38
-15 24 -59 29 -68 8z"/>
<path d="M4553 6950 c-26 -11 -29 -27 -8 -54 17 -23 20 -46 5 -46 -5 0 -15 18
-21 40 -7 22 -16 40 -20 40 -27 0 -79 -102 -79 -155 1 -39 38 -102 81 -136 39
-31 49 -34 109 -34 56 0 70 4 102 28 42 32 78 99 78 143 -1 39 -24 100 -47
126 -44 49 -140 72 -200 48z m62 -30 c10 -11 15 -20 11 -20 -4 0 -19 9 -33 20
-17 13 -20 20 -11 20 8 0 23 -9 33 -20z m48 -38 c-3 -28 -10 -49 -14 -46 -13
8 -11 78 3 92 17 17 18 12 11 -46z m72 -1 c6 -10 18 -33 28 -51 10 -17 16 -35
12 -38 -3 -3 -8 3 -11 15 -6 23 -30 37 -45 27 -5 -3 -9 0 -9 5 0 6 5 11 10 11
6 0 10 5 10 10 0 6 -6 10 -14 10 -8 0 -16 7 -20 15 -8 22 27 19 39 -4z m-219
-40 c-4 -6 -13 -11 -21 -11 -7 0 -15 -7 -19 -15 -5 -14 15 -20 52 -16 15 2 16
-21 0 -37 -18 -18 -28 -14 -28 11 -1 21 -1 21 -15 3 -13 -18 -14 -17 -21 9 -8
34 7 61 32 57 15 -3 17 -1 7 9 -7 7 -13 18 -13 23 0 6 7 3 16 -6 9 -9 13 -21
10 -27z m177 -2 c-7 -7 -12 -3 -15 16 -5 25 -4 25 10 11 12 -11 13 -19 5 -27z
m-100 -11 c-21 -20 -23 -21 -29 -3 -9 22 24 51 40 35 7 -7 3 -17 -11 -32z m45
-51 c5 -23 -16 -47 -34 -40 -14 5 -19 44 -7 57 12 12 38 1 41 -17z m102 4 c0
-11 5 -21 12 -23 6 -2 8 -9 4 -16 -5 -9 -13 -8 -32 4 -30 20 -32 54 -4 54 13
0 20 -7 20 -19z m-37 -75 c13 -29 14 -36 2 -46 -11 -9 -19 -6 -35 10 -19 19
-20 26 -11 46 14 33 24 30 44 -10z m-128 4 c16 -17 16 -20 2 -20 -8 0 -18 6
-21 13 -3 8 -9 7 -20 -7 -8 -10 -20 -15 -26 -11 -6 4 -2 13 12 25 29 24 31 24
53 0z m-22 -51 c-4 -15 -9 -17 -17 -9 -8 8 -7 13 4 20 8 5 16 10 17 10 0 0 -1
-9 -4 -21z m82 -9 c3 -5 -3 -10 -14 -10 -12 0 -21 5 -21 10 0 6 6 10 14 10 8
0 18 -4 21 -10z"/>
<path d="M6300 7014 c0 -9 5 -14 12 -12 18 6 21 28 4 28 -9 0 -16 -7 -16 -16z"/>
<path d="M6254 6691 c-43 -20 -86 -68 -99 -110 -12 -38 -7 -119 9 -149 21 -40
78 -91 114 -101 17 -5 33 -6 35 -3 1 4 1 40 -1 80 l-4 72 -46 1 c-26 1 -38 3
-27 6 11 2 30 6 43 9 31 6 28 19 -19 75 -47 57 -34 65 22 14 22 -19 46 -35 55
-35 8 0 36 16 61 35 25 19 50 35 54 35 20 0 6 -18 -36 -48 -25 -17 -45 -38
-45 -45 0 -7 20 -27 45 -45 25 -17 45 -36 45 -41 0 -5 -26 2 -57 15 -54 22
-59 22 -70 7 -17 -22 -17 -104 0 -127 11 -15 19 -16 53 -7 86 23 136 95 136
196 0 132 -147 223 -268 166z"/>
<path d="M7987 6682 c-10 -10 -17 -24 -17 -30 0 -15 38 -35 56 -28 17 7 19 47
2 64 -16 16 -22 15 -41 -6z"/>
<path d="M6920 6491 c0 -6 4 -13 10 -16 6 -3 7 1 4 9 -7 18 -14 21 -14 7z"/>
<path d="M6780 6463 c0 -12 5 -25 10 -28 13 -8 13 15 0 35 -8 12 -10 11 -10
-7z"/>
<path d="M6690 6316 c0 -2 8 -10 18 -17 15 -13 16 -12 3 4 -13 16 -21 21 -21
13z"/>
<path d="M7898 5907 c-9 -17 -47 -66 -85 -107 -62 -68 -181 -213 -207 -250
-21 -31 12 6 100 110 49 58 106 123 127 145 40 41 93 122 85 130 -2 3 -12 -10
-20 -28z"/>
<path d="M7559 5493 l-34 -38 38 34 c34 33 42 41 34 41 -2 0 -19 -17 -38 -37z"/>
<path d="M7421 5386 c-75 -56 -111 -87 -80 -70 19 10 98 69 137 101 49 40 18
23 -57 -31z"/>
<path d="M7299 5293 c-13 -16 -12 -17 4 -4 9 7 17 15 17 17 0 8 -8 3 -21 -13z"/>
<path d="M7060 5109 c-28 -25 -34 -33 -15 -21 28 19 73 62 64 62 -2 0 -24 -18
-49 -41z"/>
<path d="M6984 5048 l-19 -23 23 19 c12 11 22 21 22 23 0 8 -8 2 -26 -19z"/>
<path d="M6744 4848 l-29 -33 33 29 c17 17 32 31 32 33 0 8 -8 1 -36 -29z"/>
<path d="M6665 4788 c-169 -134 -724 -675 -717 -700 1 -5 -2 -7 -6 -4 -12 7
-44 -28 -35 -38 5 -4 1 -6 -7 -4 -8 2 -14 -3 -13 -9 2 -7 -1 -12 -5 -10 -15 4
-83 -63 -76 -75 4 -6 3 -8 -3 -5 -5 3 -36 -21 -68 -53 l-59 -60 27 -53 c15
-28 27 -46 27 -39 0 7 3 11 8 9 10 -7 8 46 -3 63 -6 10 -4 12 10 6 16 -6 16
-4 4 11 -13 15 -12 16 9 11 15 -4 22 -2 22 9 0 8 5 11 10 8 6 -3 10 4 10 17 0
18 2 20 10 8 8 -12 10 -9 10 14 0 23 3 27 20 23 17 -4 20 0 20 23 0 20 6 31
20 35 11 3 20 13 20 20 0 9 8 12 20 10 13 -3 18 0 14 7 -5 8 -1 9 11 4 15 -5
16 -4 5 9 -14 17 -14 17 15 33 11 6 14 12 8 12 -23 0 -14 20 9 20 21 0 21 1 3
13 -12 10 -14 16 -7 21 7 4 12 2 12 -4 0 -7 5 -6 14 2 8 7 10 15 5 18 -15 10
566 575 583 567 1 -1 30 24 63 55 67 64 70 73 10 26z m-915 -901 c0 -2 -12
-14 -27 -28 l-28 -24 24 28 c23 25 31 32 31 24z"/>
<path d="M7997 6464 c-14 -14 -6 -24 19 -24 16 0 24 5 22 13 -5 14 -31 21 -41
11z"/>
<path d="M5078 6262 c-7 -27 6 -46 27 -39 10 4 15 15 13 29 -4 29 -34 36 -40
10z"/>
<path d="M3655 4150 c-3 -6 1 -7 9 -4 18 7 21 14 7 14 -6 0 -13 -4 -16 -10z"/>
<path d="M3525 4090 c-3 -6 1 -7 9 -4 18 7 21 14 7 14 -6 0 -13 -4 -16 -10z"/>
<path d="M3480 4070 c-9 -6 -10 -10 -3 -10 6 0 15 5 18 10 8 12 4 12 -15 0z"/>
<path d="M5925 5092 c-16 -12 -41 -47 -27 -38 6 4 12 2 12 -3 0 -6 -8 -11 -17
-11 -15 0 -14 -2 3 -14 17 -13 20 -12 32 10 15 28 13 68 -3 56z"/>
<path d="M5978 5088 c-3 -9 53 -48 69 -48 8 0 1 38 -9 48 -16 16 -55 16 -60 0z"/>
<path d="M5941 5021 c-16 -29 -13 -67 5 -81 38 -32 104 35 78 78 -16 26 -70
28 -83 3z"/>
<path d="M5830 4381 c-15 -28 -13 -33 13 -29 14 2 23 11 25 26 4 28 -23 30
-38 3z"/>
<path d="M6202 3300 c0 -14 2 -19 5 -12 2 6 2 18 0 25 -3 6 -5 1 -5 -13z"/>
<path d="M7639 3559 c-38 -38 -74 -80 -80 -92 -9 -19 -7 -19 11 3 12 14 51 55
87 93 37 37 63 67 59 67 -5 0 -40 -32 -77 -71z"/>
<path d="M8970 3850 c-13 -8 -12 -10 3 -10 9 0 17 5 17 10 0 12 -1 12 -20 0z"/>
<path d="M8597 2033 c-12 -12 -7 -50 8 -63 21 -18 65 2 65 29 0 29 -54 54 -73
34z"/>
<path d="M6515 1870 c10 -11 20 -20 23 -20 3 0 -3 9 -13 20 -10 11 -20 20 -23
20 -3 0 3 -9 13 -20z"/>
<path d="M5998 1732 c13 -17 28 -35 34 -39 7 -3 2 8 -10 25 -13 17 -28 35 -34
39 -7 3 -2 -8 10 -25z"/>
<path d="M8976 1718 c-23 -33 -20 -56 13 -89 34 -34 61 -37 86 -9 24 27 22 66
-5 96 -30 31 -73 32 -94 2z m74 -19 c14 -25 6 -49 -14 -49 -17 0 -36 29 -36
54 0 23 37 20 50 -5z"/>
<path d="M8820 1460 c-23 -23 -26 -50 -8 -68 19 -19 46 -14 64 13 15 23 15 27
0 50 -20 30 -30 31 -56 5z"/>
<path d="M9585 1290 c3 -5 11 -10 16 -10 6 0 7 5 4 10 -3 6 -11 10 -16 10 -6
0 -7 -4 -4 -10z"/>
<path d="M5919 1489 c-8 -15 -8 -24 0 -32 15 -15 44 14 35 36 -8 23 -21 21
-35 -4z"/>
</g>
</svg>
